999
dxfrw 0.6.3
  0
SECTION
  2
HEADER
  9
$ACADVER
  1
AC1021
  9
$DWGCODEPAGE
  3
ANSI_1252
  9
$INSBASE
 10
0
 20
0
 30
0
  9
$EXTMIN
 10
-331.5
 20
-1741.244771520893
 30
0
  9
$EXTMAX
 10
331.5
 20
1.33216209599511e-316
 30
0
  9
$LIMMIN
 10
0
 20
0
  9
$LIMMAX
 10
420
 20
297
  9
$ORTHOMODE
 70
    0
  9
$REGENMODE
 70
    1
  9
$FILLMODE
 70
    1
  9
$QTEXTMODE
 70
    0
  9
$MIRRTEXT
 70
    0
  9
$LTSCALE
 40
1
  9
$ATTMODE
 70
    0
  9
$TEXTSIZE
 40
2.5
  9
$TRACEWID
 40
15.68
  9
$TEXTSTYLE
  7
STANDARD
  9
$CLAYER
  8
376x265x1.3
  9
$CELTYPE
  6
BYLAYER
  9
$CECOLOR
 62
  256
  9
$CELTSCALE
 40
1
  9
$DISPSILH
 70
    0
  9
$DIMSCALE
 40
1
  9
$DIMASZ
 40
2.5
  9
$DIMEXO
 40
0.625
  9
$DIMDLI
 40
3.75
  9
$DIMRND
 40
0
  9
$DIMDLE
 40
0
  9
$DIMEXE
 40
1.25
  9
$DIMTP
 40
0
  9
$DIMTM
 40
0
  9
$DIMTXT
 40
5
  9
$DIMCEN
 40
2.5
  9
$DIMTSZ
 40
0
  9
$DIMTOL
 70
    0
  9
$DIMLIM
 70
    0
  9
$DIMTIH
 70
    0
  9
$DIMTOH
 70
    0
  9
$DIMSE1
 70
    0
  9
$DIMSE2
 70
    0
  9
$DIMTAD
 70
    1
  9
$DIMZIN
 70
    8
  9
$DIMBLK
  1

  9
$DIMASO
 70
    1
  9
$DIMSHO
 70
    1
  9
$DIMPOST
  1

  9
$DIMAPOST
  1

  9
$DIMALT
 70
    0
  9
$DIMALTD
 70
    3
  9
$DIMALTF
 40
0.03937
  9
$DIMLFAC
 40
1
  9
$DIMTOFL
 70
    1
  9
$DIMTVP
 40
0
  9
$DIMTIX
 70
    0
  9
$DIMSOXD
 70
    0
  9
$DIMSAH
 70
    0
  9
$DIMBLK1
  1

  9
$DIMBLK2
  1

  9
$DIMSTYLE
  2
STANDARD
  9
$DIMCLRD
 70
    0
  9
$DIMCLRE
 70
    0
  9
$DIMCLRT
 70
    0
  9
$DIMTFAC
 40
1
  9
$DIMGAP
 40
0.625
  9
$DIMJUST
 70
    0
  9
$DIMSD1
 70
    0
  9
$DIMSD2
 70
    0
  9
$DIMTOLJ
 70
    0
  9
$DIMTZIN
 70
    8
  9
$DIMALTZ
 70
    0
  9
$DIMALTTZ
 70
    0
  9
$DIMUPT
 70
    0
  9
$DIMDEC
 70
    4
  9
$DIMTDEC
 70
    2
  9
$DIMALTU
 70
    2
  9
$DIMALTTD
 70
    3
  9
$DIMTXSTY
  7
standard
  9
$DIMAUNIT
 70
    0
  9
$DIMADEC
 70
    0
  9
$DIMALTRND
 40
0
  9
$DIMAZIN
 70
    0
  9
$DIMDSEP
 70
   44
  9
$DIMATFIT
 70
    3
  9
$DIMFRAC
 70
    0
  9
$DIMLDRBLK
  1
STANDARD
  9
$DIMLUNIT
 70
    2
  9
$DIMLWD
 70
   -2
  9
$DIMLWE
 70
   -2
  9
$DIMTMOVE
 70
    0
  9
$DIMFXL
 40
1
  9
$DIMFXLON
 70
    0
  9
$DIMJOGANG
 40
0.7854
  9
$DIMTFILL
 70
    0
  9
$DIMTFILLCLR
 70
    0
  9
$DIMARCSYM
 70
    0
  9
$DIMLTYPE
  6

  9
$DIMLTEX1
  6

  9
$DIMLTEX2
  6

  9
$LUNITS
 70
    2
  9
$LUPREC
 70
    4
  9
$SKETCHINC
 40
1
  9
$FILLETRAD
 40
0
  9
$AUNITS
 70
    0
  9
$AUPREC
 70
    2
  9
$MENU
  1
.
  9
$ELEVATION
 40
0
  9
$PELEVATION
 40
0
  9
$THICKNESS
 40
0
  9
$LIMCHECK
 70
    0
  9
$CHAMFERA
 40
0
  9
$CHAMFERB
 40
0
  9
$CHAMFERC
 40
0
  9
$CHAMFERD
 40
0
  9
$SKPOLY
 70
    0
  9
$USRTIMER
 70
    1
  9
$ANGBASE
 50
0
  9
$ANGDIR
 70
    0
  9
$PDMODE
 70
   34
  9
$PDSIZE
 40
0
  9
$PLINEWID
 40
0
  9
$SPLFRAME
 70
    0
  9
$SPLINETYPE
 70
    2
  9
$SPLINESEGS
 70
    8
  9
$HANDSEED
  5
20000
  9
$SURFTAB1
 70
    6
  9
$SURFTAB2
 70
    6
  9
$SURFTYPE
 70
    6
  9
$SURFU
 70
    6
  9
$SURFV
 70
    6
  9
$UCSBASE
  2

  9
$UCSNAME
  2

  9
$UCSORG
 10
0
 20
0
 30
0
  9
$UCSXDIR
 10
1
 20
0
 30
0
  9
$UCSYDIR
 10
0
 20
1
 30
0
  9
$UCSORTHOREF
  2

  9
$UCSORTHOVIEW
 70
    0
  9
$UCSORGTOP
 10
0
 20
0
 30
0
  9
$UCSORGBOTTOM
 10
0
 20
0
 30
0
  9
$UCSORGLEFT
 10
0
 20
0
 30
0
  9
$UCSORGRIGHT
 10
0
 20
0
 30
0
  9
$UCSORGFRONT
 10
0
 20
0
 30
0
  9
$UCSORGBACK
 10
0
 20
0
 30
0
  9
$PUCSBASE
  2

  9
$PUCSNAME
  2

  9
$PUCSORG
 10
0
 20
0
 30
0
  9
$PUCSXDIR
 10
1
 20
0
 30
0
  9
$PUCSYDIR
 10
0
 20
1
 30
0
  9
$PUCSORTHOREF
  2

  9
$PUCSORTHOVIEW
 70
    0
  9
$PUCSORGTOP
 10
0
 20
0
 30
0
  9
$PUCSORGBOTTOM
 10
0
 20
0
 30
0
  9
$PUCSORGLEFT
 10
0
 20
0
 30
0
  9
$PUCSORGRIGHT
 10
0
 20
0
 30
0
  9
$PUCSORGFRONT
 10
0
 20
0
 30
0
  9
$PUCSORGBACK
 10
0
 20
0
 30
0
  9
$USERI1
 70
    0
  9
$USERI2
 70
    0
  9
$USERI3
 70
    0
  9
$USERI4
 70
    0
  9
$USERI5
 70
    0
  9
$USERR1
 40
0
  9
$USERR2
 40
0
  9
$USERR3
 40
0
  9
$USERR4
 40
0
  9
$USERR5
 40
0
  9
$WORLDVIEW
 70
    1
  9
$SHADEDGE
 70
    3
  9
$SHADEDIF
 70
   70
  9
$TILEMODE
 70
    1
  9
$MAXACTVP
 70
   64
  9
$PINSBASE
 10
53.69260341743225
 20
1749.480004667098
 30
0
  9
$PLIMCHECK
 70
    0
  9
$PEXTMIN
 10
0
 20
0
 30
0
  9
$PEXTMAX
 10
0
 20
0
 30
0
  9
$GRIDMODE
 70
    0
  9
$SNAPSTYLE
 70
    0
  9
$GRIDUNIT
 10
0
 20
0
  9
$PLIMMIN
 10
0
 20
0
  9
$PLIMMAX
 10
210
 20
297
  9
$UNITMODE
 70
    0
  9
$VISRETAIN
 70
    1
  9
$PLINEGEN
 70
    0
  9
$PSLTSCALE
 70
    1
  9
$TREEDEPTH
 70
 3020
  9
$CMLSTYLE
  2
Standard
  9
$CMLJUST
 70
    0
  9
$CMLSCALE
 40
20
  9
$PROXYGRAPHICS
 70
    1
  9
$MEASUREMENT
 70
    1
  9
$CELWEIGHT
370
   -1
  9
$ENDCAPS
280
    0
  9
$JOINSTYLE
280
    0
  9
$LWDISPLAY
290
    0
  9
$INSUNITS
 70
    4
  9
$HYPERLINKBASE
  1

  9
$STYLESHEET
  1

  9
$XEDIT
290
    1
  9
$CEPSNTYPE
380
    0
  9
$PSTYLEMODE
290
    1
  9
$EXTNAMES
290
    1
  9
$PSVPSCALE
 40
1
  9
$OLESTARTUP
290
    0
  9
$SORTENTS
280
  127
  9
$INDEXCTL
280
    0
  9
$HIDETEXT
280
    1
  9
$XCLIPFRAME
290
    0
  9
$HALOGAP
280
    0
  9
$OBSCOLOR
 70
  257
  9
$OBSLTYPE
280
    0
  9
$INTERSECTIONDISPLAY
280
    0
  9
$INTERSECTIONCOLOR
 70
  257
  9
$DIMASSOC
280
    1
  9
$PROJECTNAME
  1

  9
$CAMERADISPLAY
290
    0
  9
$LENSLENGTH
 40
50
  9
$CAMERAHEIGHT
 40
0
  9
$STEPSPERSEC
 40
2
  9
$STEPSIZE
 40
50
  9
$3DDWFPREC
 40
2
  9
$PSOLWIDTH
 40
5
  9
$PSOLHEIGHT
 40
80
  9
$LOFTANG1
 40
1.570796326794897
  9
$LOFTANG2
 40
1.570796326794897
  9
$LOFTMAG1
 40
0
  9
$LOFTMAG2
 40
0
  9
$LOFTPARAM
 70
    7
  9
$LOFTNORMALS
280
    1
  9
$LATITUDE
 40
1
  9
$LONGITUDE
 40
1
  9
$NORTHDIRECTION
 40
0
  9
$TIMEZONE
 70
-8000
  9
$LIGHTGLYPHDISPLAY
280
    1
  9
$TILEMODELIGHTSYNCH
280
    1
  9
$SOLIDHIST
280
    1
  9
$SHOWHIST
280
    1
  9
$DWFFRAME
280
    2
  9
$DGNFRAME
280
    0
  9
$REALWORLDSCALE
290
    1
  9
$INTERFERECOLOR
 62
    1
  9
$CSHADOW
280
    0
  9
$SHADOWPLANELOCATION
 40
0
  0
ENDSEC
  0
SECTION
  2
CLASSES
  0
ENDSEC
  0
SECTION
  2
TABLES
  0
TABLE
  2
VPORT
  5
8
330
0
100
AcDbSymbolTable
 70
    1
  0
VPORT
  5
31
330
2
100
AcDbSymbolTableRecord
100
AcDbViewportTableRecord
  2
*ACTIVE
 70
    0
 10
0
 20
0
 11
1
 21
1
 12
547.8412825744547
 22
-423.621456874433
 13
0
 23
0
 14
10
 24
10
 15
10
 25
10
 16
0
 26
0
 36
1
 17
0
 27
0
 37
0
 40
1208.223603817305
 41
1.787346221441125
 42
50
 43
0
 44
0
 50
0
 51
0
 71
    0
 72
  100
 73
    1
 74
    3
 75
    0
 76
    0
 77
    0
 78
    0
281
    0
 65
    1
110
0
120
0
130
0
111
1
121
0
131
0
112
0
122
1
132
0
 79
    0
146
0
348
10020
 60
    7
 61
    5
292
1
282
    1
141
0
142
0
 63
  250
421
3358443
  0
ENDTAB
  0
TABLE
  2
LTYPE
  5
5
330
0
100
AcDbSymbolTable
 70
    4
  0
LTYPE
  5
14
330
5
100
AcDbSymbolTableRecord
100
AcDbLinetypeTableRecord
  2
ByBlock
 70
    0
  3

 72
   65
 73
    0
 40
0
  0
LTYPE
  5
15
330
5
100
AcDbSymbolTableRecord
100
AcDbLinetypeTableRecord
  2
ByLayer
 70
    0
  3

 72
   65
 73
    0
 40
0
  0
LTYPE
  5
16
330
5
100
AcDbSymbolTableRecord
100
AcDbLinetypeTableRecord
  2
Continuous
 70
    0
  3
Solid line
 72
   65
 73
    0
 40
0
  0
LTYPE
  5
32
330
5
100
AcDbSymbolTableRecord
100
AcDbLinetypeTableRecord
  2
DOT
 70
    0
  3
Dot . . . . . . . . . . . . . . . . . . . . . .
 72
   65
 73
    2
 40
6.35
 49
0
 74
    0
 49
-6.35
 74
    0
  0
LTYPE
  5
33
330
5
100
AcDbSymbolTableRecord
100
AcDbLinetypeTableRecord
  2
DOTTINY
 70
    0
  3
Dot (.15x) .....................................
 72
   65
 73
    2
 40
0.9525
 49
0
 74
    0
 49
-0.9525
 74
    0
  0
LTYPE
  5
34
330
5
100
AcDbSymbolTableRecord
100
AcDbLinetypeTableRecord
  2
DOT2
 70
    0
  3
Dot (.5x) .....................................
 72
   65
 73
    2
 40
3.175
 49
0
 74
    0
 49
-3.175
 74
    0
  0
LTYPE
  5
35
330
5
100
AcDbSymbolTableRecord
100
AcDbLinetypeTableRecord
  2
DOTX2
 70
    0
  3
Dot (2x) .  .  .  .  .  .  .  .  .  .  .  .  .
 72
   65
 73
    2
 40
12.7
 49
0
 74
    0
 49
-12.7
 74
    0
  0
LTYPE
  5
36
330
5
100
AcDbSymbolTableRecord
100
AcDbLinetypeTableRecord
  2
DASHED
 70
    0
  3
Dashed _ _ _ _ _ _ _ _ _ _ _ _ _ _ _ _ _
 72
   65
 73
    2
 40
19.05
 49
12.7
 74
    0
 49
-6.35
 74
    0
  0
LTYPE
  5
37
330
5
100
AcDbSymbolTableRecord
100
AcDbLinetypeTableRecord
  2
DASHEDTINY
 70
    0
  3
Dashed (.15x) _ _ _ _ _ _ _ _ _ _ _ _ _ _ _ _ _
 72
   65
 73
    2
 40
2.8575
 49
1.905
 74
    0
 49
-0.9525
 74
    0
  0
LTYPE
  5
38
330
5
100
AcDbSymbolTableRecord
100
AcDbLinetypeTableRecord
  2
DASHED2
 70
    0
  3
Dashed (.5x) _ _ _ _ _ _ _ _ _ _ _ _ _ _ _ _ _
 72
   65
 73
    2
 40
9.524999999999999
 49
6.35
 74
    0
 49
-3.175
 74
    0
  0
LTYPE
  5
39
330
5
100
AcDbSymbolTableRecord
100
AcDbLinetypeTableRecord
  2
DASHEDX2
 70
    0
  3
Dashed (2x) ____  ____  ____  ____  ____  ___
 72
   65
 73
    2
 40
38.09999999999999
 49
25.4
 74
    0
 49
-12.7
 74
    0
  0
LTYPE
  5
3A
330
5
100
AcDbSymbolTableRecord
100
AcDbLinetypeTableRecord
  2
DASHDOT
 70
    0
  3
Dash dot __ . __ . __ . __ . __ . __ . __ . __
 72
   65
 73
    4
 40
25.4
 49
12.7
 74
    0
 49
-6.35
 74
    0
 49
0
 74
    0
 49
-6.35
 74
    0
  0
LTYPE
  5
3B
330
5
100
AcDbSymbolTableRecord
100
AcDbLinetypeTableRecord
  2
DASHDOTTINY
 70
    0
  3
Dash dot (.15x) _._._._._._._._._._._._._._._.
 72
   65
 73
    4
 40
3.81
 49
1.905
 74
    0
 49
-0.9525
 74
    0
 49
0
 74
    0
 49
-0.9525
 74
    0
  0
LTYPE
  5
3C
330
5
100
AcDbSymbolTableRecord
100
AcDbLinetypeTableRecord
  2
DASHDOT2
 70
    0
  3
Dash dot (.5x) _._._._._._._._._._._._._._._.
 72
   65
 73
    4
 40
12.7
 49
6.35
 74
    0
 49
-3.175
 74
    0
 49
0
 74
    0
 49
-3.175
 74
    0
  0
LTYPE
  5
3D
330
5
100
AcDbSymbolTableRecord
100
AcDbLinetypeTableRecord
  2
DASHDOTX2
 70
    0
  3
Dash dot (2x) ____  .  ____  .  ____  .  ___
 72
   65
 73
    4
 40
50.8
 49
25.4
 74
    0
 49
-12.7
 74
    0
 49
0
 74
    0
 49
-12.7
 74
    0
  0
LTYPE
  5
3E
330
5
100
AcDbSymbolTableRecord
100
AcDbLinetypeTableRecord
  2
DIVIDE
 70
    0
  3
Divide ____ . . ____ . . ____ . . ____ . . ____
 72
   65
 73
    6
 40
31.75
 49
12.7
 74
    0
 49
-6.35
 74
    0
 49
0
 74
    0
 49
-6.35
 74
    0
 49
0
 74
    0
 49
-6.35
 74
    0
  0
LTYPE
  5
3F
330
5
100
AcDbSymbolTableRecord
100
AcDbLinetypeTableRecord
  2
DIVIDETINY
 70
    0
  3
Divide (.15x) __..__..__..__..__..__..__..__.._
 72
   65
 73
    6
 40
4.7625
 49
1.905
 74
    0
 49
-0.9525
 74
    0
 49
0
 74
    0
 49
-0.9525
 74
    0
 49
0
 74
    0
 49
-0.9525
 74
    0
  0
LTYPE
  5
40
330
5
100
AcDbSymbolTableRecord
100
AcDbLinetypeTableRecord
  2
DIVIDE2
 70
    0
  3
Divide (.5x) __..__..__..__..__..__..__..__.._
 72
   65
 73
    6
 40
15.875
 49
6.35
 74
    0
 49
-3.175
 74
    0
 49
0
 74
    0
 49
-3.175
 74
    0
 49
0
 74
    0
 49
-3.175
 74
    0
  0
LTYPE
  5
41
330
5
100
AcDbSymbolTableRecord
100
AcDbLinetypeTableRecord
  2
DIVIDEX2
 70
    0
  3
Divide (2x) ________  .  .  ________  .  .  _
 72
   65
 73
    6
 40
63.5
 49
25.4
 74
    0
 49
-12.7
 74
    0
 49
0
 74
    0
 49
-12.7
 74
    0
 49
0
 74
    0
 49
-12.7
 74
    0
  0
LTYPE
  5
42
330
5
100
AcDbSymbolTableRecord
100
AcDbLinetypeTableRecord
  2
BORDER
 70
    0
  3
Border __ __ . __ __ . __ __ . __ __ . __ __ .
 72
   65
 73
    6
 40
44.45
 49
12.7
 74
    0
 49
-6.35
 74
    0
 49
12.7
 74
    0
 49
-6.35
 74
    0
 49
0
 74
    0
 49
-6.35
 74
    0
  0
LTYPE
  5
43
330
5
100
AcDbSymbolTableRecord
100
AcDbLinetypeTableRecord
  2
BORDERTINY
 70
    0
  3
Border (.15x) __.__.__.__.__.__.__.__.__.__.__.
 72
   65
 73
    6
 40
6.6675
 49
1.905
 74
    0
 49
-0.9525
 74
    0
 49
1.905
 74
    0
 49
-0.9525
 74
    0
 49
0
 74
    0
 49
-0.9525
 74
    0
  0
LTYPE
  5
44
330
5
100
AcDbSymbolTableRecord
100
AcDbLinetypeTableRecord
  2
BORDER2
 70
    0
  3
Border (.5x) __.__.__.__.__.__.__.__.__.__.__.
 72
   65
 73
    6
 40
22.225
 49
6.35
 74
    0
 49
-3.175
 74
    0
 49
6.35
 74
    0
 49
-3.175
 74
    0
 49
0
 74
    0
 49
-3.175
 74
    0
  0
LTYPE
  5
45
330
5
100
AcDbSymbolTableRecord
100
AcDbLinetypeTableRecord
  2
BORDERX2
 70
    0
  3
Border (2x) ____  ____  .  ____  ____  .  ___
 72
   65
 73
    6
 40
88.89999999999999
 49
25.4
 74
    0
 49
-12.7
 74
    0
 49
25.4
 74
    0
 49
-12.7
 74
    0
 49
0
 74
    0
 49
-12.7
 74
    0
  0
LTYPE
  5
46
330
5
100
AcDbSymbolTableRecord
100
AcDbLinetypeTableRecord
  2
CENTER
 70
    0
  3
Center ____ _ ____ _ ____ _ ____ _ ____ _ ____
 72
   65
 73
    4
 40
50.8
 49
31.75
 74
    0
 49
-6.35
 74
    0
 49
6.35
 74
    0
 49
-6.35
 74
    0
  0
LTYPE
  5
47
330
5
100
AcDbSymbolTableRecord
100
AcDbLinetypeTableRecord
  2
CENTERTINY
 70
    0
  3
Center (.15x) ___ _ ___ _ ___ _ ___ _ ___ _ ___
 72
   65
 73
    4
 40
7.619999999999999
 49
4.7625
 74
    0
 49
-0.9525
 74
    0
 49
0.9525
 74
    0
 49
-0.9525
 74
    0
  0
LTYPE
  5
48
330
5
100
AcDbSymbolTableRecord
100
AcDbLinetypeTableRecord
  2
CENTER2
 70
    0
  3
Center (.5x) ___ _ ___ _ ___ _ ___ _ ___ _ ___
 72
   65
 73
    4
 40
28.575
 49
19.05
 74
    0
 49
-3.175
 74
    0
 49
3.175
 74
    0
 49
-3.175
 74
    0
  0
LTYPE
  5
49
330
5
100
AcDbSymbolTableRecord
100
AcDbLinetypeTableRecord
  2
CENTERX2
 70
    0
  3
Center (2x) ________  __  ________  __  _____
 72
   65
 73
    4
 40
101.6
 49
63.5
 74
    0
 49
-12.7
 74
    0
 49
12.7
 74
    0
 49
-12.7
 74
    0
  0
ENDTAB
  0
TABLE
  2
LAYER
  5
2
330
0
100
AcDbSymbolTable
 70
    1
  0
LAYER
  5
10
330
2
100
AcDbSymbolTableRecord
100
AcDbLayerTableRecord
  2
0
 70
    5
 62
    7
  6
CONTINUOUS
370
    0
390
F
  0
LAYER
  5
4A
330
2
100
AcDbSymbolTableRecord
100
AcDbLayerTableRecord
  2
376x265x1.3
 70
    0
 62
    2
  6
CONTINUOUS
370
   25
390
F
  0
LAYER
  5
4B
330
2
100
AcDbSymbolTableRecord
100
AcDbLayerTableRecord
  2
455x320.5x1.5
 70
    0
 62
    6
  6
CONTINUOUS
370
   25
390
F
  0
LAYER
  5
4C
330
2
100
AcDbSymbolTableRecord
100
AcDbLayerTableRecord
  2
653x460x2.0
 70
    0
 62
    5
  6
CONTINUOUS
370
   25
390
F
  0
ENDTAB
  0
TABLE
  2
STYLE
  5
3
330
0
100
AcDbSymbolTable
 70
    3
  0
STYLE
  5
4D
330
2
100
AcDbSymbolTableRecord
100
AcDbTextStyleTableRecord
  2
Standard
 70
    0
 40
0
 41
1
 50
0
 71
    0
 42
1
  3
txt
  4

  0
ENDTAB
  0
TABLE
  2
VIEW
  5
6
330
0
100
AcDbSymbolTable
 70
    0
  0
ENDTAB
  0
TABLE
  2
UCS
  5
7
330
0
100
AcDbSymbolTable
 70
    0
  0
ENDTAB
  0
TABLE
  2
APPID
  5
9
330
0
100
AcDbSymbolTable
 70
    1
  0
APPID
  5
12
330
9
100
AcDbSymbolTableRecord
100
AcDbRegAppTableRecord
  2
ACAD
 70
    0
  0
APPID
  5
4E
330
9
100
AcDbSymbolTableRecord
100
AcDbRegAppTableRecord
  2
LibreCad
 70
    0
  0
ENDTAB
  0
TABLE
  2
DIMSTYLE
  5
A
330
0
100
AcDbSymbolTable
 70
    1
100
AcDbDimStyleTable
 71
    1
  0
DIMSTYLE
105
4F
330
A
100
AcDbSymbolTableRecord
100
AcDbDimStyleTableRecord
  2
Standard
 70
    0
 40
1
 41
2.5
 42
0.625
 43
0.38
 44
1.25
 45
0
 46
0
 47
0
 48
0
 49
1
140
5
141
0.09
142
0
143
25.4
144
1
145
0
146
1
147
0.625
148
0
 71
    0
 72
    0
 73
    0
 74
    1
 75
    0
 76
    0
 77
    0
 78
    8
 79
    0
170
    0
171
    2
172
    0
173
    0
174
    0
175
    0
176
    0
177
    0
178
    0
179
    0
271
    4
272
    4
273
    2
274
    2
275
    0
276
    0
277
    2
278
   44
279
    0
280
    0
281
    0
282
    0
283
    1
284
    0
285
    0
286
    0
288
    0
289
    3
340
standard
341

371
   -2
372
   -2
  0
ENDTAB
  0
TABLE
  2
BLOCK_RECORD
  5
1
330
0
100
AcDbSymbolTable
 70
    2
  0
BLOCK_RECORD
  5
1F
330
1
100
AcDbSymbolTableRecord
100
AcDbBlockTableRecord
  2
*Model_Space
 70
    0
280
    1
281
    0
  0
BLOCK_RECORD
  5
1E
330
1
100
AcDbSymbolTableRecord
100
AcDbBlockTableRecord
  2
*Paper_Space
 70
    0
280
    1
281
    0
  0
BLOCK_RECORD
  5
50
330
1
100
AcDbSymbolTableRecord
100
AcDbBlockTableRecord
  2
*D13
 70
    0
280
    1
281
    0
  0
BLOCK_RECORD
  5
53
330
1
100
AcDbSymbolTableRecord
100
AcDbBlockTableRecord
  2
*D20
 70
    0
280
    1
281
    0
  0
BLOCK_RECORD
  5
56
330
1
100
AcDbSymbolTableRecord
100
AcDbBlockTableRecord
  2
*D1
 70
    0
280
    1
281
    0
  0
BLOCK_RECORD
  5
59
330
1
100
AcDbSymbolTableRecord
100
AcDbBlockTableRecord
  2
*D16
 70
    0
280
    1
281
    0
  0
BLOCK_RECORD
  5
5C
330
1
100
AcDbSymbolTableRecord
100
AcDbBlockTableRecord
  2
*D4
 70
    0
280
    1
281
    0
  0
BLOCK_RECORD
  5
5F
330
1
100
AcDbSymbolTableRecord
100
AcDbBlockTableRecord
  2
*D2
 70
    0
280
    1
281
    0
  0
BLOCK_RECORD
  5
62
330
1
100
AcDbSymbolTableRecord
100
AcDbBlockTableRecord
  2
*D19
 70
    0
280
    1
281
    0
  0
BLOCK_RECORD
  5
65
330
1
100
AcDbSymbolTableRecord
100
AcDbBlockTableRecord
  2
*D8
 70
    0
280
    1
281
    0
  0
BLOCK_RECORD
  5
68
330
1
100
AcDbSymbolTableRecord
100
AcDbBlockTableRecord
  2
*D5
 70
    0
280
    1
281
    0
  0
BLOCK_RECORD
  5
6B
330
1
100
AcDbSymbolTableRecord
100
AcDbBlockTableRecord
  2
*D6
 70
    0
280
    1
281
    0
  0
BLOCK_RECORD
  5
6E
330
1
100
AcDbSymbolTableRecord
100
AcDbBlockTableRecord
  2
*D7
 70
    0
280
    1
281
    0
  0
BLOCK_RECORD
  5
71
330
1
100
AcDbSymbolTableRecord
100
AcDbBlockTableRecord
  2
*D15
 70
    0
280
    1
281
    0
  0
BLOCK_RECORD
  5
74
330
1
100
AcDbSymbolTableRecord
100
AcDbBlockTableRecord
  2
*D18
 70
    0
280
    1
281
    0
  0
BLOCK_RECORD
  5
77
330
1
100
AcDbSymbolTableRecord
100
AcDbBlockTableRecord
  2
*D10
 70
    0
280
    1
281
    0
  0
BLOCK_RECORD
  5
7A
330
1
100
AcDbSymbolTableRecord
100
AcDbBlockTableRecord
  2
*D12
 70
    0
280
    1
281
    0
  0
BLOCK_RECORD
  5
7D
330
1
100
AcDbSymbolTableRecord
100
AcDbBlockTableRecord
  2
*D11
 70
    0
280
    1
281
    0
  0
BLOCK_RECORD
  5
80
330
1
100
AcDbSymbolTableRecord
100
AcDbBlockTableRecord
  2
*D9
 70
    0
280
    1
281
    0
  0
BLOCK_RECORD
  5
83
330
1
100
AcDbSymbolTableRecord
100
AcDbBlockTableRecord
  2
*D14
 70
    0
280
    1
281
    0
  0
BLOCK_RECORD
  5
86
330
1
100
AcDbSymbolTableRecord
100
AcDbBlockTableRecord
  2
*D3
 70
    0
280
    1
281
    0
  0
BLOCK_RECORD
  5
89
330
1
100
AcDbSymbolTableRecord
100
AcDbBlockTableRecord
  2
*D21
 70
    0
280
    1
281
    0
  0
BLOCK_RECORD
  5
8C
330
1
100
AcDbSymbolTableRecord
100
AcDbBlockTableRecord
  2
*D17
 70
    0
280
    1
281
    0
  0
ENDTAB
  0
ENDSEC
  0
SECTION
  2
BLOCKS
  0
BLOCK
  5
20
330
1F
100
AcDbEntity
  8
0
100
AcDbBlockBegin
  2
*Model_Space
 70
    0
 10
0
 20
0
 30
0
  3
*Model_Space
  1

  0
ENDBLK
  5
21
330
1F
100
AcDbEntity
  8
0
100
AcDbBlockEnd
  0
BLOCK
  5
1C
330
1B
100
AcDbEntity
  8
0
100
AcDbBlockBegin
  2
*Paper_Space
 70
    0
 10
0
 20
0
 30
0
  3
*Paper_Space
  1

  0
ENDBLK
  5
1D
330
1F
100
AcDbEntity
  8
0
100
AcDbBlockEnd
  0
BLOCK
  5
51
330
50
100
AcDbEntity
  8
0
100
AcDbBlockBegin
  2
*D13
 70
    1
 10
0
 20
0
  3
*D13
  1

  0
LINE
  5
8F
100
AcDbEntity
  8
455x320.5x1.5
  6
ByBlock
 62
    0
370
   -2
100
AcDbLine
 10
-99
 20
-1193.869771520893
 11
-99
 21
-1273.994771520893
  0
SOLID
  5
90
100
AcDbEntity
  8
455x320.5x1.5
  6
ByBlock
 62
    0
370
   -2
100
AcDbTrace
 10
-99
 20
-1193.869771520893
 30
0
 11
-98.58371534222717
 21
-1196.369771520893
 31
0
 12
-99.41628465777283
 22
-1196.369771520893
 32
0
 13
-99.41628465777283
 23
-1196.369771520893
 33
0
  0
SOLID
  5
91
100
AcDbEntity
  8
455x320.5x1.5
  6
ByBlock
 62
    0
370
   -2
100
AcDbTrace
 10
-99
 20
-1273.994771520893
 30
0
 11
-99.41628465777283
 21
-1271.494771520893
 31
0
 12
-98.58371534222717
 22
-1271.494771520893
 32
0
 13
-98.58371534222717
 23
-1271.494771520893
 33
0
  0
MTEXT
  5
92
100
AcDbEntity
  8
455x320.5x1.5
  6
CONTINUOUS
 62
    0
370
   -2
100
AcDbMText
 10
-102.125
 20
-1233.932271520893
 30
0
 40
5
 41
18.61111111111142
 71
    5
 72
    1
  1
80,125
  7
standard
210
0
220
0
230
1
 50
90
 73
    2
 44
1
  0
LINE
  5
93
100
AcDbEntity
  8
455x320.5x1.5
  6
ByBlock
 62
    0
370
   -2
100
AcDbLine
 10
-99.625
 20
-1193.869771520893
 11
-100.25
 21
-1193.869771520893
  0
LINE
  5
94
100
AcDbEntity
  8
455x320.5x1.5
  6
ByBlock
 62
    0
370
   -2
100
AcDbLine
 10
-99.625
 20
-1273.994771520893
 11
-100.25
 21
-1273.994771520893
  0
ENDBLK
  5
52
330
50
100
AcDbEntity
  8
0
100
AcDbBlockEnd
  0
BLOCK
  5
54
330
53
100
AcDbEntity
  8
0
100
AcDbBlockBegin
  2
*D20
 70
    1
 10
0
 20
0
  3
*D20
  1

  0
LINE
  5
95
100
AcDbEntity
  8
376x265x1.3
  6
ByBlock
 62
    0
370
   -2
100
AcDbLine
 10
49.5
 20
-1471.244771520893
 11
49.5
 21
-1459.244771520893
  0
SOLID
  5
96
100
AcDbEntity
  8
376x265x1.3
  6
ByBlock
 62
    0
370
   -2
100
AcDbTrace
 10
49.5
 20
-1471.244771520893
 30
0
 11
49.08371534222716
 21
-1468.744771520893
 31
0
 12
49.91628465777284
 22
-1468.744771520893
 32
0
 13
49.91628465777284
 23
-1468.744771520893
 33
0
  0
SOLID
  5
97
100
AcDbEntity
  8
376x265x1.3
  6
ByBlock
 62
    0
370
   -2
100
AcDbTrace
 10
49.5
 20
-1459.244771520893
 30
0
 11
49.91628465777284
 21
-1461.744771520893
 31
0
 12
49.08371534222716
 22
-1461.744771520893
 32
0
 13
49.08371534222716
 23
-1461.744771520893
 33
0
  0
MTEXT
  5
98
100
AcDbEntity
  8
376x265x1.3
  6
CONTINUOUS
 62
    0
370
   -2
100
AcDbMText
 10
46.375
 20
-1465.244771520893
 30
0
 40
5
 41
5
 71
    5
 72
    1
  1
12
  7
standard
210
0
220
0
230
1
 50
90
 73
    2
 44
1
  0
LINE
  5
99
100
AcDbEntity
  8
376x265x1.3
  6
ByBlock
 62
    0
370
   -2
100
AcDbLine
 10
48.875
 20
-1471.244771520893
 11
48.25
 21
-1471.244771520893
  0
LINE
  5
9A
100
AcDbEntity
  8
376x265x1.3
  6
ByBlock
 62
    0
370
   -2
100
AcDbLine
 10
48.875
 20
-1459.244771520893
 11
48.25
 21
-1459.244771520893
  0
ENDBLK
  5
55
330
53
100
AcDbEntity
  8
0
100
AcDbBlockEnd
  0
BLOCK
  5
57
330
56
100
AcDbEntity
  8
0
100
AcDbBlockBegin
  2
*D1
 70
    1
 10
0
 20
0
  3
*D1
  1

  0
LINE
  5
9B
100
AcDbEntity
  8
653x460x2.0
  6
ByBlock
 62
    0
370
   -2
100
AcDbLine
 10
-55
 20
-615.7447715208925
 11
0
 21
-615.7447715208925
  0
SOLID
  5
9C
100
AcDbEntity
  8
653x460x2.0
  6
ByBlock
 62
    0
370
   -2
100
AcDbTrace
 10
-55
 20
-615.7447715208925
 30
0
 11
-52.5
 21
-615.3284868631197
 31
0
 12
-52.5
 22
-616.1610561786654
 32
0
 13
-52.5
 23
-616.1610561786654
 33
0
  0
SOLID
  5
9D
100
AcDbEntity
  8
653x460x2.0
  6
ByBlock
 62
    0
370
   -2
100
AcDbTrace
 10
0
 20
-615.7447715208925
 30
0
 11
-2.5
 21
-616.1610561786654
 31
0
 12
-2.5
 22
-615.3284868631197
 32
0
 13
-2.5
 23
-615.3284868631197
 33
0
  0
MTEXT
  5
9E
100
AcDbEntity
  8
653x460x2.0
  6
CONTINUOUS
 62
    0
370
   -2
100
AcDbMText
 10
-27.5
 20
-612.6197715208925
 30
0
 40
5
 41
6.111111111111732
 71
    5
 72
    1
  1
55
  7
standard
210
0
220
0
230
1
 50
0
 73
    2
 44
1
  0
LINE
  5
9F
100
AcDbEntity
  8
653x460x2.0
  6
ByBlock
 62
    0
370
   -2
100
AcDbLine
 10
-55
 20
-615.1197715208925
 11
-55
 21
-614.4947715208925
  0
LINE
  5
A0
100
AcDbEntity
  8
653x460x2.0
  6
ByBlock
 62
    0
370
   -2
100
AcDbLine
 10
3.827021247335479e-17
 20
-615.1197715208925
 11
7.654042494670958e-17
 21
-614.4947715208925
  0
ENDBLK
  5
58
330
56
100
AcDbEntity
  8
0
100
AcDbBlockEnd
  0
BLOCK
  5
5A
330
59
100
AcDbEntity
  8
0
100
AcDbBlockBegin
  2
*D16
 70
    1
 10
0
 20
0
  3
*D16
  1

  0
LINE
  5
A1
100
AcDbEntity
  8
376x265x1.3
  6
ByBlock
 62
    0
370
   -2
100
AcDbLine
 10
-175.3
 20
-1471.244771520893
 11
-138.5
 21
-1471.244771520893
  0
SOLID
  5
A2
100
AcDbEntity
  8
376x265x1.3
  6
ByBlock
 62
    0
370
   -2
100
AcDbTrace
 10
-175.3
 20
-1471.244771520893
 30
0
 11
-172.8
 21
-1470.82848686312
 31
0
 12
-172.8
 22
-1471.661056178666
 32
0
 13
-172.8
 23
-1471.661056178666
 33
0
  0
SOLID
  5
A3
100
AcDbEntity
  8
376x265x1.3
  6
ByBlock
 62
    0
370
   -2
100
AcDbTrace
 10
-138.5
 20
-1471.244771520893
 30
0
 11
-141
 21
-1471.661056178666
 31
0
 12
-141
 22
-1470.82848686312
 32
0
 13
-141
 23
-1470.82848686312
 33
0
  0
MTEXT
  5
A4
100
AcDbEntity
  8
376x265x1.3
  6
CONTINUOUS
 62
    0
370
   -2
100
AcDbMText
 10
-156.9
 20
-1468.119771520893
 30
0
 40
5
 41
11.94444444444506
 71
    5
 72
    1
  1
36,8
  7
standard
210
0
220
0
230
1
 50
0
 73
    2
 44
1
  0
LINE
  5
A5
100
AcDbEntity
  8
376x265x1.3
  6
ByBlock
 62
    0
370
   -2
100
AcDbLine
 10
-175.3
 20
-1470.619771520893
 11
-175.3
 21
-1469.994771520893
  0
LINE
  5
A6
100
AcDbEntity
  8
376x265x1.3
  6
ByBlock
 62
    0
370
   -2
100
AcDbLine
 10
-138.5
 20
-1470.619771520893
 11
-138.5
 21
-1469.994771520893
  0
ENDBLK
  5
5B
330
59
100
AcDbEntity
  8
0
100
AcDbBlockEnd
  0
BLOCK
  5
5D
330
5C
100
AcDbEntity
  8
0
100
AcDbBlockBegin
  2
*D4
 70
    1
 10
0
 20
0
  3
*D4
  1

  0
LINE
  5
A7
100
AcDbEntity
  8
653x460x2.0
  6
ByBlock
 62
    0
370
   -2
100
AcDbLine
 10
0.625
 20
-939.7783345973121
 11
1.25
 21
-939.7783345973121
  0
LINE
  5
A8
100
AcDbEntity
  8
653x460x2.0
  6
ByBlock
 62
    0
370
   -2
100
AcDbLine
 10
327.125
 20
-615.7447715208925
 11
327.75
 21
-615.7447715208925
  0
LINE
  5
A9
100
AcDbEntity
  8
653x460x2.0
  6
ByBlock
 62
    0
370
   -2
100
AcDbLine
 10
0
 20
-939.7783345973121
 11
326.5
 21
-615.7447715208925
  0
SOLID
  5
AA
100
AcDbEntity
  8
653x460x2.0
  6
ByBlock
 62
    0
370
   -2
100
AcDbTrace
 10
0
 20
-939.7783345973121
 30
0
 11
1.481216954538737
 21
-937.7218110137167
 31
0
 12
2.067696088939526
 22
-938.3127542344247
 32
0
 13
2.067696088939526
 23
-938.3127542344247
 33
0
  0
SOLID
  5
AB
100
AcDbEntity
  8
653x460x2.0
  6
ByBlock
 62
    0
370
   -2
100
AcDbTrace
 10
326.5
 20
-615.7447715208925
 30
0
 11
325.0187830454612
 21
-617.801295104488
 31
0
 12
324.4323039110605
 22
-617.2103518837799
 32
0
 13
324.4323039110605
 23
-617.2103518837799
 33
0
  0
MTEXT
  5
AC
100
AcDbEntity
  8
653x460x2.0
  6
CONTINUOUS
 62
    0
370
   -2
100
AcDbMText
 10
161.0486850334482
 20
-775.5434824069284
 30
0
 40
5
 41
10.55555555555587
 71
    5
 72
    1
  1
460
  7
standard
210
0
220
0
230
1
 50
44.78276947254801
 73
    2
 44
1
  0
ENDBLK
  5
5E
330
5C
100
AcDbEntity
  8
0
100
AcDbBlockEnd
  0
BLOCK
  5
60
330
5F
100
AcDbEntity
  8
0
100
AcDbBlockBegin
  2
*D2
 70
    1
 10
0
 20
0
  3
*D2
  1

  0
LINE
  5
AD
100
AcDbEntity
  8
653x460x2.0
  6
ByBlock
 62
    0
370
   -2
100
AcDbLine
 10
7.041719095097281e-15
 20
-615.7447715208925
 11
0
 21
-730.7447715208925
  0
SOLID
  5
AE
100
AcDbEntity
  8
653x460x2.0
  6
ByBlock
 62
    0
370
   -2
100
AcDbTrace
 10
7.041719095097281e-15
 20
-615.7447715208925
 30
0
 11
0.4162846577728474
 21
-618.2447715208925
 31
0
 12
-0.4162846577728336
 22
-618.2447715208925
 32
0
 13
-0.4162846577728336
 23
-618.2447715208925
 33
0
  0
SOLID
  5
AF
100
AcDbEntity
  8
653x460x2.0
  6
ByBlock
 62
    0
370
   -2
100
AcDbTrace
 10
0
 20
-730.7447715208925
 30
0
 11
-0.41628465777284
 21
-728.2447715208925
 31
0
 12
0.4162846577728409
 22
-728.2447715208925
 32
0
 13
0.4162846577728409
 23
-728.2447715208925
 33
0
  0
MTEXT
  5
B0
100
AcDbEntity
  8
653x460x2.0
  6
CONTINUOUS
 62
    0
370
   -2
100
AcDbMText
 10
-3.124999999999996
 20
-673.2447715208925
 30
0
 40
5
 41
7.777777777778089
 71
    5
 72
    1
  1
115
  7
standard
210
0
220
0
230
1
 50
90
 73
    2
 44
1
  0
LINE
  5
B1
100
AcDbEntity
  8
653x460x2.0
  6
ByBlock
 62
    0
370
   -2
100
AcDbLine
 10
-0.625
 20
-615.7447715208925
 11
-1.249999999999993
 21
-615.7447715208925
  0
LINE
  5
B2
100
AcDbEntity
  8
653x460x2.0
  6
ByBlock
 62
    0
370
   -2
100
AcDbLine
 10
-0.625
 20
-730.7447715208925
 11
-1.25
 21
-730.7447715208925
  0
ENDBLK
  5
61
330
5F
100
AcDbEntity
  8
0
100
AcDbBlockEnd
  0
BLOCK
  5
63
330
62
100
AcDbEntity
  8
0
100
AcDbBlockBegin
  2
*D19
 70
    1
 10
0
 20
0
  3
*D19
  1

  0
LINE
  5
B3
100
AcDbEntity
  8
376x265x1.3
  6
ByBlock
 62
    0
370
   -2
100
AcDbLine
 10
-139.1250000000001
 20
-1658.00932918642
 11
-139.7500000000002
 21
-1658.00932918642
  0
LINE
  5
B4
100
AcDbEntity
  8
376x265x1.3
  6
ByBlock
 62
    0
370
   -2
100
AcDbLine
 10
48.875
 20
-1471.244771520893
 11
48.24999999999994
 21
-1471.244771520893
  0
LINE
  5
B5
100
AcDbEntity
  8
376x265x1.3
  6
ByBlock
 62
    0
370
   -2
100
AcDbLine
 10
-138.5000000000002
 20
-1658.00932918642
 11
49.49999999999994
 21
-1471.244771520893
  0
SOLID
  5
B6
100
AcDbEntity
  8
376x265x1.3
  6
ByBlock
 62
    0
370
   -2
100
AcDbTrace
 10
-138.5000000000002
 20
-1658.00932918642
 30
0
 11
-137.0198008300828
 21
-1655.952072922929
 31
0
 12
-136.4330293585968
 22
-1656.542725871316
 32
0
 13
-136.4330293585968
 23
-1656.542725871316
 33
0
  0
SOLID
  5
B7
100
AcDbEntity
  8
376x265x1.3
  6
ByBlock
 62
    0
370
   -2
100
AcDbTrace
 10
49.49999999999994
 20
-1471.244771520893
 30
0
 11
48.01980083008254
 21
-1473.302027784384
 31
0
 12
47.43302935859658
 22
-1472.711374835997
 32
0
 13
47.43302935859658
 23
-1472.711374835997
 33
0
  0
MTEXT
  5
B8
100
AcDbEntity
  8
376x265x1.3
  6
CONTINUOUS
 62
    0
370
   -2
100
AcDbMText
 10
-46.7024122366219
 20
-1562.410069221581
 30
0
 40
5
 41
10.00000000000062
 71
    5
 72
    1
  1
265
  7
standard
210
0
220
0
230
1
 50
44.81112041218687
 73
    2
 44
1
  0
ENDBLK
  5
64
330
62
100
AcDbEntity
  8
0
100
AcDbBlockEnd
  0
BLOCK
  5
66
330
65
100
AcDbEntity
  8
0
100
AcDbBlockBegin
  2
*D8
 70
    1
 10
0
 20
0
  3
*D8
  1

  0
LINE
  5
B9
100
AcDbEntity
  8
455x320.5x1.5
  6
ByBlock
 62
    0
370
   -2
100
AcDbLine
 10
-326.5
 20
-1100.744771520893
 11
128.5
 21
-1100.744771520893
  0
SOLID
  5
BA
100
AcDbEntity
  8
455x320.5x1.5
  6
ByBlock
 62
    0
370
   -2
100
AcDbTrace
 10
-326.5
 20
-1100.744771520893
 30
0
 11
-324
 21
-1100.32848686312
 31
0
 12
-324
 22
-1101.161056178666
 32
0
 13
-324
 23
-1101.161056178666
 33
0
  0
SOLID
  5
BB
100
AcDbEntity
  8
455x320.5x1.5
  6
ByBlock
 62
    0
370
   -2
100
AcDbTrace
 10
128.5
 20
-1100.744771520893
 30
0
 11
126
 21
-1101.161056178666
 31
0
 12
126
 22
-1100.32848686312
 32
0
 13
126
 23
-1100.32848686312
 33
0
  0
MTEXT
  5
BC
100
AcDbEntity
  8
455x320.5x1.5
  6
CONTINUOUS
 62
    0
370
   -2
100
AcDbMText
 10
-99
 20
-1097.619771520893
 30
0
 40
5
 41
10.55555555555618
 71
    5
 72
    1
  1
455
  7
standard
210
0
220
0
230
1
 50
0
 73
    2
 44
1
  0
LINE
  5
BD
100
AcDbEntity
  8
455x320.5x1.5
  6
ByBlock
 62
    0
370
   -2
100
AcDbLine
 10
-326.5
 20
-1100.119771520893
 11
-326.5
 21
-1099.494771520893
  0
LINE
  5
BE
100
AcDbEntity
  8
455x320.5x1.5
  6
ByBlock
 62
    0
370
   -2
100
AcDbLine
 10
128.5
 20
-1100.119771520893
 11
128.5
 21
-1099.494771520893
  0
ENDBLK
  5
67
330
65
100
AcDbEntity
  8
0
100
AcDbBlockEnd
  0
BLOCK
  5
69
330
68
100
AcDbEntity
  8
0
100
AcDbBlockBegin
  2
*D5
 70
    1
 10
0
 20
0
  3
*D5
  1

  0
LINE
  5
BF
100
AcDbEntity
  8
653x460x2.0
  6
ByBlock
 62
    0
370
   -2
100
AcDbLine
 10
326.5
 20
-615.7447715208925
 11
326.5
 21
-1075.744771520893
  0
SOLID
  5
C0
100
AcDbEntity
  8
653x460x2.0
  6
ByBlock
 62
    0
370
   -2
100
AcDbTrace
 10
326.5
 20
-615.7447715208925
 30
0
 11
326.9162846577728
 21
-618.2447715208925
 31
0
 12
326.0837153422272
 22
-618.2447715208925
 32
0
 13
326.0837153422272
 23
-618.2447715208925
 33
0
  0
SOLID
  5
C1
100
AcDbEntity
  8
653x460x2.0
  6
ByBlock
 62
    0
370
   -2
100
AcDbTrace
 10
326.5
 20
-1075.744771520893
 30
0
 11
326.0837153422272
 21
-1073.244771520893
 31
0
 12
326.9162846577728
 22
-1073.244771520893
 32
0
 13
326.9162846577728
 23
-1073.244771520893
 33
0
  0
MTEXT
  5
C2
100
AcDbEntity
  8
653x460x2.0
  6
CONTINUOUS
 62
    0
370
   -2
100
AcDbMText
 10
323.375
 20
-845.7447715208928
 30
0
 40
5
 41
10.55555555555587
 71
    5
 72
    1
  1
460
  7
standard
210
0
220
0
230
1
 50
90
 73
    2
 44
1
  0
LINE
  5
C3
100
AcDbEntity
  8
653x460x2.0
  6
ByBlock
 62
    0
370
   -2
100
AcDbLine
 10
325.875
 20
-615.7447715208925
 11
325.25
 21
-615.7447715208925
  0
LINE
  5
C4
100
AcDbEntity
  8
653x460x2.0
  6
ByBlock
 62
    0
370
   -2
100
AcDbLine
 10
325.875
 20
-1075.744771520893
 11
325.25
 21
-1075.744771520893
  0
ENDBLK
  5
6A
330
68
100
AcDbEntity
  8
0
100
AcDbBlockEnd
  0
BLOCK
  5
6C
330
6B
100
AcDbEntity
  8
0
100
AcDbBlockBegin
  2
*D6
 70
    1
 10
0
 20
0
  3
*D6
  1

  0
LINE
  5
C5
100
AcDbEntity
  8
653x460x2.0
  6
ByBlock
 62
    0
370
   -2
100
AcDbLine
 10
-326.5
 20
-601.7447715208925
 11
326.5
 21
-601.7447715208925
  0
SOLID
  5
C6
100
AcDbEntity
  8
653x460x2.0
  6
ByBlock
 62
    0
370
   -2
100
AcDbTrace
 10
-326.5
 20
-601.7447715208925
 30
0
 11
-324
 21
-601.3284868631197
 31
0
 12
-324
 22
-602.1610561786654
 32
0
 13
-324
 23
-602.1610561786654
 33
0
  0
SOLID
  5
C7
100
AcDbEntity
  8
653x460x2.0
  6
ByBlock
 62
    0
370
   -2
100
AcDbTrace
 10
326.5
 20
-601.7447715208925
 30
0
 11
324
 21
-602.1610561786654
 31
0
 12
324
 22
-601.3284868631197
 32
0
 13
324
 23
-601.3284868631197
 33
0
  0
MTEXT
  5
C8
100
AcDbEntity
  8
653x460x2.0
  6
CONTINUOUS
 62
    0
370
   -2
100
AcDbMText
 10
1.913510623667739e-16
 20
-598.6197715208925
 30
0
 40
5
 41
10.00000000000093
 71
    5
 72
    1
  1
653
  7
standard
210
0
220
0
230
1
 50
0
 73
    2
 44
1
  0
LINE
  5
C9
100
AcDbEntity
  8
653x460x2.0
  6
ByBlock
 62
    0
370
   -2
100
AcDbLine
 10
-326.5
 20
-615.1197715208925
 11
-326.5
 21
-600.4947715208925
  0
LINE
  5
CA
100
AcDbEntity
  8
653x460x2.0
  6
ByBlock
 62
    0
370
   -2
100
AcDbLine
 10
326.5
 20
-615.1197715208925
 11
326.5
 21
-600.4947715208925
  0
ENDBLK
  5
6D
330
6B
100
AcDbEntity
  8
0
100
AcDbBlockEnd
  0
BLOCK
  5
6F
330
6E
100
AcDbEntity
  8
0
100
AcDbBlockBegin
  2
*D7
 70
    1
 10
0
 20
0
  3
*D7
  1

  0
LINE
  5
CB
100
AcDbEntity
  8
653x460x2.0
  6
ByBlock
 62
    0
370
   -2
100
AcDbLine
 10
326.5
 20
-615.7447715208925
 11
326.5
 21
-601.7447715208925
  0
SOLID
  5
CC
100
AcDbEntity
  8
653x460x2.0
  6
ByBlock
 62
    0
370
   -2
100
AcDbTrace
 10
326.5
 20
-615.7447715208925
 30
0
 11
326.0837153422272
 21
-613.2447715208925
 31
0
 12
326.9162846577728
 22
-613.2447715208925
 32
0
 13
326.9162846577728
 23
-613.2447715208925
 33
0
  0
SOLID
  5
CD
100
AcDbEntity
  8
653x460x2.0
  6
ByBlock
 62
    0
370
   -2
100
AcDbTrace
 10
326.5
 20
-601.7447715208925
 30
0
 11
326.9162846577728
 21
-604.2447715208925
 31
0
 12
326.0837153422272
 22
-604.2447715208925
 32
0
 13
326.0837153422272
 23
-604.2447715208925
 33
0
  0
MTEXT
  5
CE
100
AcDbEntity
  8
653x460x2.0
  6
CONTINUOUS
 62
    0
370
   -2
100
AcDbMText
 10
323.375
 20
-608.7447715208925
 30
0
 40
5
 41
5.555555555555555
 71
    5
 72
    1
  1
14
  7
standard
210
0
220
0
230
1
 50
90
 73
    2
 44
1
  0
LINE
  5
CF
100
AcDbEntity
  8
653x460x2.0
  6
ByBlock
 62
    0
370
   -2
100
AcDbLine
 10
325.875
 20
-615.7447715208925
 11
325.25
 21
-615.7447715208925
  0
LINE
  5
D0
100
AcDbEntity
  8
653x460x2.0
  6
ByBlock
 62
    0
370
   -2
100
AcDbLine
 10
325.875
 20
-601.7447715208925
 11
325.25
 21
-601.7447715208925
  0
ENDBLK
  5
70
330
6E
100
AcDbEntity
  8
0
100
AcDbBlockEnd
  0
BLOCK
  5
72
330
71
100
AcDbEntity
  8
0
100
AcDbBlockBegin
  2
*D15
 70
    1
 10
0
 20
0
  3
*D15
  1

  0
LINE
  5
D1
100
AcDbEntity
  8
376x265x1.3
  6
ByBlock
 62
    0
370
   -2
100
AcDbLine
 10
-326.5
 20
-1459.244771520893
 11
49.5
 21
-1459.244771520893
  0
SOLID
  5
D2
100
AcDbEntity
  8
376x265x1.3
  6
ByBlock
 62
    0
370
   -2
100
AcDbTrace
 10
-326.5
 20
-1459.244771520893
 30
0
 11
-324
 21
-1458.82848686312
 31
0
 12
-324
 22
-1459.661056178666
 32
0
 13
-324
 23
-1459.661056178666
 33
0
  0
SOLID
  5
D3
100
AcDbEntity
  8
376x265x1.3
  6
ByBlock
 62
    0
370
   -2
100
AcDbTrace
 10
49.5
 20
-1459.244771520893
 30
0
 11
47
 21
-1459.661056178666
 31
0
 12
47
 22
-1458.82848686312
 32
0
 13
47
 23
-1458.82848686312
 33
0
  0
MTEXT
  5
D4
100
AcDbEntity
  8
376x265x1.3
  6
CONTINUOUS
 62
    0
370
   -2
100
AcDbMText
 10
-138.5
 20
-1456.119771520893
 30
0
 40
5
 41
10.00000000000062
 71
    5
 72
    1
  1
376
  7
standard
210
0
220
0
230
1
 50
0
 73
    2
 44
1
  0
LINE
  5
D5
100
AcDbEntity
  8
376x265x1.3
  6
ByBlock
 62
    0
370
   -2
100
AcDbLine
 10
-326.5
 20
-1470.619771520893
 11
-326.5
 21
-1457.994771520893
  0
LINE
  5
D6
100
AcDbEntity
  8
376x265x1.3
  6
ByBlock
 62
    0
370
   -2
100
AcDbLine
 10
49.5
 20
-1470.619771520893
 11
49.5
 21
-1457.994771520893
  0
ENDBLK
  5
73
330
71
100
AcDbEntity
  8
0
100
AcDbBlockEnd
  0
BLOCK
  5
75
330
74
100
AcDbEntity
  8
0
100
AcDbBlockBegin
  2
*D18
 70
    1
 10
0
 20
0
  3
*D18
  1

  0
LINE
  5
D7
100
AcDbEntity
  8
376x265x1.3
  6
ByBlock
 62
    0
370
   -2
100
AcDbLine
 10
-138.5
 20
-1603.744771520893
 11
-138.5
 21
-1537.494771520893
  0
SOLID
  5
D8
100
AcDbEntity
  8
376x265x1.3
  6
ByBlock
 62
    0
370
   -2
100
AcDbTrace
 10
-138.5
 20
-1603.744771520893
 30
0
 11
-138.9162846577728
 21
-1601.244771520893
 31
0
 12
-138.0837153422272
 22
-1601.244771520893
 32
0
 13
-138.0837153422272
 23
-1601.244771520893
 33
0
  0
SOLID
  5
D9
100
AcDbEntity
  8
376x265x1.3
  6
ByBlock
 62
    0
370
   -2
100
AcDbTrace
 10
-138.5
 20
-1537.494771520893
 30
0
 11
-138.0837153422272
 21
-1539.994771520893
 31
0
 12
-138.9162846577728
 22
-1539.994771520893
 32
0
 13
-138.9162846577728
 23
-1539.994771520893
 33
0
  0
MTEXT
  5
DA
100
AcDbEntity
  8
376x265x1.3
  6
CONTINUOUS
 62
    0
370
   -2
100
AcDbMText
 10
-141.625
 20
-1570.619771520893
 30
0
 40
5
 41
15.83333333333426
 71
    5
 72
    1
  1
66,25
  7
standard
210
0
220
0
230
1
 50
90
 73
    2
 44
1
  0
LINE
  5
DB
100
AcDbEntity
  8
376x265x1.3
  6
ByBlock
 62
    0
370
   -2
100
AcDbLine
 10
-139.125
 20
-1603.744771520893
 11
-139.75
 21
-1603.744771520893
  0
LINE
  5
DC
100
AcDbEntity
  8
376x265x1.3
  6
ByBlock
 62
    0
370
   -2
100
AcDbLine
 10
-139.125
 20
-1537.494771520893
 11
-139.75
 21
-1537.494771520893
  0
ENDBLK
  5
76
330
74
100
AcDbEntity
  8
0
100
AcDbBlockEnd
  0
BLOCK
  5
78
330
77
100
AcDbEntity
  8
0
100
AcDbBlockBegin
  2
*D10
 70
    1
 10
0
 20
0
  3
*D10
  1

  0
LINE
  5
DD
100
AcDbEntity
  8
455x320.5x1.5
  6
ByBlock
 62
    0
370
   -2
100
AcDbLine
 10
128.5
 20
-1113.744771520893
 11
128.5
 21
-1100.744771520893
  0
SOLID
  5
DE
100
AcDbEntity
  8
455x320.5x1.5
  6
ByBlock
 62
    0
370
   -2
100
AcDbTrace
 10
128.5
 20
-1113.744771520893
 30
0
 11
128.0837153422272
 21
-1111.244771520893
 31
0
 12
128.9162846577728
 22
-1111.244771520893
 32
0
 13
128.9162846577728
 23
-1111.244771520893
 33
0
  0
SOLID
  5
DF
100
AcDbEntity
  8
455x320.5x1.5
  6
ByBlock
 62
    0
370
   -2
100
AcDbTrace
 10
128.5
 20
-1100.744771520893
 30
0
 11
128.9162846577728
 21
-1103.244771520893
 31
0
 12
128.0837153422272
 22
-1103.244771520893
 32
0
 13
128.0837153422272
 23
-1103.244771520893
 33
0
  0
MTEXT
  5
E0
100
AcDbEntity
  8
455x320.5x1.5
  6
CONTINUOUS
 62
    0
370
   -2
100
AcDbMText
 10
125.375
 20
-1107.244771520893
 30
0
 40
5
 41
5.000000000000311
 71
    5
 72
    1
  1
13
  7
standard
210
0
220
0
230
1
 50
90
 73
    2
 44
1
  0
LINE
  5
E1
100
AcDbEntity
  8
455x320.5x1.5
  6
ByBlock
 62
    0
370
   -2
100
AcDbLine
 10
127.875
 20
-1113.744771520893
 11
127.25
 21
-1113.744771520893
  0
LINE
  5
E2
100
AcDbEntity
  8
455x320.5x1.5
  6
ByBlock
 62
    0
370
   -2
100
AcDbLine
 10
127.875
 20
-1100.744771520893
 11
127.25
 21
-1100.744771520893
  0
ENDBLK
  5
79
330
77
100
AcDbEntity
  8
0
100
AcDbBlockEnd
  0
BLOCK
  5
7B
330
7A
100
AcDbEntity
  8
0
100
AcDbBlockBegin
  2
*D12
 70
    1
 10
0
 20
0
  3
*D12
  1

  0
LINE
  5
E3
100
AcDbEntity
  8
455x320.5x1.5
  6
ByBlock
 62
    0
370
   -2
100
AcDbLine
 10
-99
 20
-1113.744771520893
 11
-99
 21
-1193.869771520893
  0
SOLID
  5
E4
100
AcDbEntity
  8
455x320.5x1.5
  6
ByBlock
 62
    0
370
   -2
100
AcDbTrace
 10
-99
 20
-1113.744771520893
 30
0
 11
-98.58371534222717
 21
-1116.244771520893
 31
0
 12
-99.41628465777283
 22
-1116.244771520893
 32
0
 13
-99.41628465777283
 23
-1116.244771520893
 33
0
  0
SOLID
  5
E5
100
AcDbEntity
  8
455x320.5x1.5
  6
ByBlock
 62
    0
370
   -2
100
AcDbTrace
 10
-99
 20
-1193.869771520893
 30
0
 11
-99.41628465777283
 21
-1191.369771520893
 31
0
 12
-98.58371534222717
 22
-1191.369771520893
 32
0
 13
-98.58371534222717
 23
-1191.369771520893
 33
0
  0
MTEXT
  5
E6
100
AcDbEntity
  8
455x320.5x1.5
  6
CONTINUOUS
 62
    0
370
   -2
100
AcDbMText
 10
-102.125
 20
-1153.807271520893
 30
0
 40
5
 41
18.61111111111142
 71
    5
 72
    1
  1
80,125
  7
standard
210
0
220
0
230
1
 50
90
 73
    2
 44
1
  0
LINE
  5
E7
100
AcDbEntity
  8
455x320.5x1.5
  6
ByBlock
 62
    0
370
   -2
100
AcDbLine
 10
-99.625
 20
-1113.744771520893
 11
-100.25
 21
-1113.744771520893
  0
LINE
  5
E8
100
AcDbEntity
  8
455x320.5x1.5
  6
ByBlock
 62
    0
370
   -2
100
AcDbLine
 10
-99.625
 20
-1193.869771520893
 11
-100.25
 21
-1193.869771520893
  0
ENDBLK
  5
7C
330
7A
100
AcDbEntity
  8
0
100
AcDbBlockEnd
  0
BLOCK
  5
7E
330
7D
100
AcDbEntity
  8
0
100
AcDbBlockBegin
  2
*D11
 70
    1
 10
0
 20
0
  3
*D11
  1

  0
LINE
  5
E9
100
AcDbEntity
  8
455x320.5x1.5
  6
ByBlock
 62
    0
370
   -2
100
AcDbLine
 10
-141
 20
-1113.744771520893
 11
-99
 21
-1113.744771520893
  0
SOLID
  5
EA
100
AcDbEntity
  8
455x320.5x1.5
  6
ByBlock
 62
    0
370
   -2
100
AcDbTrace
 10
-141
 20
-1113.744771520893
 30
0
 11
-138.5
 21
-1113.32848686312
 31
0
 12
-138.5
 22
-1114.161056178666
 32
0
 13
-138.5
 23
-1114.161056178666
 33
0
  0
SOLID
  5
EB
100
AcDbEntity
  8
455x320.5x1.5
  6
ByBlock
 62
    0
370
   -2
100
AcDbTrace
 10
-99
 20
-1113.744771520893
 30
0
 11
-101.5
 21
-1114.161056178666
 31
0
 12
-101.5
 22
-1113.32848686312
 32
0
 13
-101.5
 23
-1113.32848686312
 33
0
  0
MTEXT
  5
EC
100
AcDbEntity
  8
455x320.5x1.5
  6
CONTINUOUS
 62
    0
370
   -2
100
AcDbMText
 10
-120
 20
-1110.619771520893
 30
0
 40
5
 41
6.666666666666666
 71
    5
 72
    1
  1
42
  7
standard
210
0
220
0
230
1
 50
0
 73
    2
 44
1
  0
LINE
  5
ED
100
AcDbEntity
  8
455x320.5x1.5
  6
ByBlock
 62
    0
370
   -2
100
AcDbLine
 10
-141
 20
-1113.119771520893
 11
-141
 21
-1112.494771520893
  0
LINE
  5
EE
100
AcDbEntity
  8
455x320.5x1.5
  6
ByBlock
 62
    0
370
   -2
100
AcDbLine
 10
-99
 20
-1113.119771520893
 11
-99
 21
-1112.494771520893
  0
ENDBLK
  5
7F
330
7D
100
AcDbEntity
  8
0
100
AcDbBlockEnd
  0
BLOCK
  5
81
330
80
100
AcDbEntity
  8
0
100
AcDbBlockBegin
  2
*D9
 70
    1
 10
0
 20
0
  3
*D9
  1

  0
LINE
  5
EF
100
AcDbEntity
  8
455x320.5x1.5
  6
ByBlock
 62
    0
370
   -2
100
AcDbLine
 10
-99.62499999999994
 20
-1339.496847923304
 11
-100.25
 21
-1339.496847923304
  0
LINE
  5
F0
100
AcDbEntity
  8
455x320.5x1.5
  6
ByBlock
 62
    0
370
   -2
100
AcDbLine
 10
127.875
 20
-1113.744771520893
 11
127.25
 21
-1113.744771520893
  0
LINE
  5
F1
100
AcDbEntity
  8
455x320.5x1.5
  6
ByBlock
 62
    0
370
   -2
100
AcDbLine
 10
-98.99999999999997
 20
-1339.496847923304
 11
128.5
 21
-1113.744771520893
  0
SOLID
  5
F2
100
AcDbEntity
  8
455x320.5x1.5
  6
ByBlock
 62
    0
370
   -2
100
AcDbTrace
 10
-98.99999999999997
 20
-1339.496847923304
 30
0
 11
-97.51864937867917
 21
-1337.440420620186
 31
0
 12
-96.93220865564214
 22
-1338.031401959614
 32
0
 13
-96.93220865564214
 23
-1338.031401959614
 33
0
  0
SOLID
  5
F3
100
AcDbEntity
  8
455x320.5x1.5
  6
ByBlock
 62
    0
370
   -2
100
AcDbTrace
 10
128.5
 20
-1113.744771520893
 30
0
 11
127.0186493786792
 21
-1115.801198824011
 31
0
 12
126.4322086556421
 22
-1115.210217484583
 32
0
 13
126.4322086556421
 23
-1115.210217484583
 33
0
  0
MTEXT
  5
F4
100
AcDbEntity
  8
455x320.5x1.5
  6
CONTINUOUS
 62
    0
370
   -2
100
AcDbMText
 10
12.54882920824482
 20
-1224.402595993549
 30
0
 40
5
 41
15.83333333333395
 71
    5
 72
    1
  1
320,5
  7
standard
210
0
220
0
230
1
 50
44.779045361718
 73
    2
 44
1
  0
ENDBLK
  5
82
330
80
100
AcDbEntity
  8
0
100
AcDbBlockEnd
  0
BLOCK
  5
84
330
83
100
AcDbEntity
  8
0
100
AcDbBlockBegin
  2
*D14
 70
    1
 10
0
 20
0
  3
*D14
  1

  0
LINE
  5
F5
100
AcDbEntity
  8
455x320.5x1.5
  6
ByBlock
 62
    0
370
   -2
100
AcDbLine
 10
128.5
 20
-1113.744771520893
 11
128.5
 21
-1434.244771520893
  0
SOLID
  5
F6
100
AcDbEntity
  8
455x320.5x1.5
  6
ByBlock
 62
    0
370
   -2
100
AcDbTrace
 10
128.5
 20
-1113.744771520893
 30
0
 11
128.9162846577728
 21
-1116.244771520893
 31
0
 12
128.0837153422272
 22
-1116.244771520893
 32
0
 13
128.0837153422272
 23
-1116.244771520893
 33
0
  0
SOLID
  5
F7
100
AcDbEntity
  8
455x320.5x1.5
  6
ByBlock
 62
    0
370
   -2
100
AcDbTrace
 10
128.5
 20
-1434.244771520893
 30
0
 11
128.0837153422272
 21
-1431.744771520893
 31
0
 12
128.9162846577728
 22
-1431.744771520893
 32
0
 13
128.9162846577728
 23
-1431.744771520893
 33
0
  0
MTEXT
  5
F8
100
AcDbEntity
  8
455x320.5x1.5
  6
CONTINUOUS
 62
    0
370
   -2
100
AcDbMText
 10
125.375
 20
-1273.994771520893
 30
0
 40
5
 41
15.83333333333395
 71
    5
 72
    1
  1
320,5
  7
standard
210
0
220
0
230
1
 50
90
 73
    2
 44
1
  0
LINE
  5
F9
100
AcDbEntity
  8
455x320.5x1.5
  6
ByBlock
 62
    0
370
   -2
100
AcDbLine
 10
127.875
 20
-1113.744771520893
 11
127.25
 21
-1113.744771520893
  0
LINE
  5
FA
100
AcDbEntity
  8
455x320.5x1.5
  6
ByBlock
 62
    0
370
   -2
100
AcDbLine
 10
127.875
 20
-1434.244771520893
 11
127.25
 21
-1434.244771520893
  0
ENDBLK
  5
85
330
83
100
AcDbEntity
  8
0
100
AcDbBlockEnd
  0
BLOCK
  5
87
330
86
100
AcDbEntity
  8
0
100
AcDbBlockBegin
  2
*D3
 70
    1
 10
0
 20
0
  3
*D3
  1

  0
LINE
  5
FB
100
AcDbEntity
  8
653x460x2.0
  6
ByBlock
 62
    0
370
   -2
100
AcDbLine
 10
7.041719095097294e-15
 20
-730.7447715208925
 11
0
 21
-845.7447715208928
  0
SOLID
  5
FC
100
AcDbEntity
  8
653x460x2.0
  6
ByBlock
 62
    0
370
   -2
100
AcDbTrace
 10
7.041719095097294e-15
 20
-730.7447715208925
 30
0
 11
0.4162846577728474
 21
-733.2447715208925
 31
0
 12
-0.4162846577728336
 22
-733.2447715208925
 32
0
 13
-0.4162846577728336
 23
-733.2447715208925
 33
0
  0
SOLID
  5
FD
100
AcDbEntity
  8
653x460x2.0
  6
ByBlock
 62
    0
370
   -2
100
AcDbTrace
 10
0
 20
-845.7447715208928
 30
0
 11
-0.41628465777284
 21
-843.2447715208928
 31
0
 12
0.4162846577728409
 22
-843.2447715208928
 32
0
 13
0.4162846577728409
 23
-843.2447715208928
 33
0
  0
MTEXT
  5
FE
100
AcDbEntity
  8
653x460x2.0
  6
CONTINUOUS
 62
    0
370
   -2
100
AcDbMText
 10
-3.124999999999996
 20
-788.2447715208926
 30
0
 40
5
 41
7.777777777778089
 71
    5
 72
    1
  1
115
  7
standard
210
0
220
0
230
1
 50
90
 73
    2
 44
1
  0
LINE
  5
FF
100
AcDbEntity
  8
653x460x2.0
  6
ByBlock
 62
    0
370
   -2
100
AcDbLine
 10
-0.625
 20
-730.7447715208925
 11
-1.249999999999993
 21
-730.7447715208925
  0
LINE
  5
100
100
AcDbEntity
  8
653x460x2.0
  6
ByBlock
 62
    0
370
   -2
100
AcDbLine
 10
-0.625
 20
-845.7447715208928
 11
-1.25
 21
-845.7447715208928
  0
ENDBLK
  5
88
330
86
100
AcDbEntity
  8
0
100
AcDbBlockEnd
  0
BLOCK
  5
8A
330
89
100
AcDbEntity
  8
0
100
AcDbBlockBegin
  2
*D21
 70
    1
 10
0
 20
0
  3
*D21
  1

  0
LINE
  5
101
100
AcDbEntity
  8
376x265x1.3
  6
ByBlock
 62
    0
370
   -2
100
AcDbLine
 10
49.50000000000002
 20
-1471.244771520893
 11
49.5
 21
-1736.244771520893
  0
SOLID
  5
102
100
AcDbEntity
  8
376x265x1.3
  6
ByBlock
 62
    0
370
   -2
100
AcDbTrace
 10
49.50000000000002
 20
-1471.244771520893
 30
0
 11
49.91628465777286
 21
-1473.744771520893
 31
0
 12
49.08371534222718
 22
-1473.744771520893
 32
0
 13
49.08371534222718
 23
-1473.744771520893
 33
0
  0
SOLID
  5
103
100
AcDbEntity
  8
376x265x1.3
  6
ByBlock
 62
    0
370
   -2
100
AcDbTrace
 10
49.5
 20
-1736.244771520893
 30
0
 11
49.08371534222716
 21
-1733.744771520893
 31
0
 12
49.91628465777284
 22
-1733.744771520893
 32
0
 13
49.91628465777284
 23
-1733.744771520893
 33
0
  0
MTEXT
  5
104
100
AcDbEntity
  8
376x265x1.3
  6
CONTINUOUS
 62
    0
370
   -2
100
AcDbMText
 10
46.37500000000001
 20
-1603.744771520893
 30
0
 40
5
 41
10.00000000000062
 71
    5
 72
    1
  1
265
  7
standard
210
0
220
0
230
1
 50
90
 73
    2
 44
1
  0
LINE
  5
105
100
AcDbEntity
  8
376x265x1.3
  6
ByBlock
 62
    0
370
   -2
100
AcDbLine
 10
48.875
 20
-1471.244771520893
 11
48.25000000000002
 21
-1471.244771520893
  0
LINE
  5
106
100
AcDbEntity
  8
376x265x1.3
  6
ByBlock
 62
    0
370
   -2
100
AcDbLine
 10
48.875
 20
-1736.244771520893
 11
48.25
 21
-1736.244771520893
  0
ENDBLK
  5
8B
330
89
100
AcDbEntity
  8
0
100
AcDbBlockEnd
  0
BLOCK
  5
8D
330
8C
100
AcDbEntity
  8
0
100
AcDbBlockBegin
  2
*D17
 70
    1
 10
0
 20
0
  3
*D17
  1

  0
LINE
  5
107
100
AcDbEntity
  8
376x265x1.3
  6
ByBlock
 62
    0
370
   -2
100
AcDbLine
 10
-138.5
 20
-1471.244771520893
 11
-138.5
 21
-1537.494771520893
  0
SOLID
  5
108
100
AcDbEntity
  8
376x265x1.3
  6
ByBlock
 62
    0
370
   -2
100
AcDbTrace
 10
-138.5
 20
-1471.244771520893
 30
0
 11
-138.0837153422272
 21
-1473.744771520893
 31
0
 12
-138.9162846577728
 22
-1473.744771520893
 32
0
 13
-138.9162846577728
 23
-1473.744771520893
 33
0
  0
SOLID
  5
109
100
AcDbEntity
  8
376x265x1.3
  6
ByBlock
 62
    0
370
   -2
100
AcDbTrace
 10
-138.5
 20
-1537.494771520893
 30
0
 11
-138.9162846577728
 21
-1534.994771520893
 31
0
 12
-138.0837153422272
 22
-1534.994771520893
 32
0
 13
-138.0837153422272
 23
-1534.994771520893
 33
0
  0
MTEXT
  5
10A
100
AcDbEntity
  8
376x265x1.3
  6
CONTINUOUS
 62
    0
370
   -2
100
AcDbMText
 10
-141.625
 20
-1504.369771520893
 30
0
 40
5
 41
15.83333333333426
 71
    5
 72
    1
  1
66,25
  7
standard
210
0
220
0
230
1
 50
90
 73
    2
 44
1
  0
LINE
  5
10B
100
AcDbEntity
  8
376x265x1.3
  6
ByBlock
 62
    0
370
   -2
100
AcDbLine
 10
-139.125
 20
-1471.244771520893
 11
-139.75
 21
-1471.244771520893
  0
LINE
  5
10C
100
AcDbEntity
  8
376x265x1.3
  6
ByBlock
 62
    0
370
   -2
100
AcDbLine
 10
-139.125
 20
-1537.494771520893
 11
-139.75
 21
-1537.494771520893
  0
ENDBLK
  5
8E
330
8C
100
AcDbEntity
  8
0
100
AcDbBlockEnd
  0
ENDSEC
  0
SECTION
  2
ENTITIES
  0
LINE
  5
10D
100
AcDbEntity
  8
653x460x2.0
  6
ByLayer
 62
  256
370
   -1
100
AcDbLine
 10
-10
 20
-730.7447715208925
 11
10
 21
-730.7447715208925
  0
LINE
  5
10E
100
AcDbEntity
  8
653x460x2.0
  6
ByLayer
 62
  256
370
   -1
100
AcDbLine
 10
-10
 20
-845.7447715208926
 11
10
 21
-845.7447715208928
  0
LINE
  5
10F
100
AcDbEntity
  8
653x460x2.0
  6
ByLayer
 62
  256
370
   -1
100
AcDbLine
 10
-10
 20
-939.7783345973121
 11
10
 21
-939.7783345973121
  0
DIMENSION
  5
110
100
AcDbEntity
  8
653x460x2.0
  6
ByLayer
 62
  256
370
   -1
100
AcDbDimension
  2
*D1
 10
0
 20
-615.7447715208925
 30
0
 11
-27.5
 21
-612.6197715208925
 31
0
 70
   32
 71
    5
 72
    0
  3
Standard
 53
0
210
0
220
0
230
1
100
AcDbAlignedDimension
 13
-55
 23
-615.7447715208925
 33
0
 14
0
 24
-615.7447715208925
 34
0
100
AcDbRotatedDimension
  0
DIMENSION
  5
111
100
AcDbEntity
  8
653x460x2.0
  6
ByLayer
 62
  256
370
   -1
100
AcDbDimension
  2
*D2
 10
0
 20
-730.7447715208925
 30
0
 11
-3.124999999999996
 21
-673.2447715208925
 31
0
 70
   32
 71
    5
 72
    0
  3
Standard
 53
0
210
0
220
0
230
1
100
AcDbAlignedDimension
 13
0
 23
-615.7447715208925
 33
0
 14
0
 24
-730.7447715208925
 34
0
 50
90
100
AcDbRotatedDimension
  0
DIMENSION
  5
112
100
AcDbEntity
  8
653x460x2.0
  6
ByLayer
 62
  256
370
   -1
100
AcDbDimension
  2
*D3
 10
0
 20
-845.7447715208928
 30
0
 11
-3.124999999999996
 21
-788.2447715208926
 31
0
 70
   32
 71
    5
 72
    0
  3
Standard
 53
0
210
0
220
0
230
1
100
AcDbAlignedDimension
 13
0
 23
-730.7447715208925
 33
0
 14
0
 24
-845.7447715208928
 34
0
 50
90
100
AcDbRotatedDimension
  0
DIMENSION
  5
113
100
AcDbEntity
  8
653x460x2.0
  6
ByLayer
 62
  256
370
   -1
100
AcDbDimension
  2
*D4
 10
326.5
 20
-615.7447715208925
 30
0
 11
161.0486850334482
 21
-775.5434824069284
 31
0
 70
   33
 71
    5
 72
    0
  3
Standard
 53
0
210
0
220
0
230
1
100
AcDbAlignedDimension
 13
0
 23
-939.7783345973121
 33
0
 14
326.5
 24
-615.7447715208925
 34
0
  0
DIMENSION
  5
114
100
AcDbEntity
  8
653x460x2.0
  6
ByLayer
 62
  256
370
   -1
100
AcDbDimension
  2
*D5
 10
326.5
 20
-1075.744771520893
 30
0
 11
323.375
 21
-845.7447715208928
 31
0
 70
   32
 71
    5
 72
    0
  3
Standard
 53
0
210
0
220
0
230
1
100
AcDbAlignedDimension
 13
326.5
 23
-615.7447715208925
 33
0
 14
326.5
 24
-1075.744771520893
 34
0
 50
90
100
AcDbRotatedDimension
  0
LINE
  5
115
100
AcDbEntity
  8
653x460x2.0
  6
ByLayer
 62
  256
370
   -1
100
AcDbLine
 10
-331.5
 20
-601.7447715208925
 11
331.5
 21
-601.7447715208925
  0
DIMENSION
  5
116
100
AcDbEntity
  8
653x460x2.0
  6
ByLayer
 62
  256
370
   -1
100
AcDbDimension
  2
*D6
 10
326.5
 20
-601.7447715208925
 30
0
 11
1.913510623667739e-16
 21
-598.6197715208925
 31
0
 70
   32
 71
    5
  3
Standard
 53
0
210
0
220
0
230
1
100
AcDbAlignedDimension
 13
-326.5
 23
-615.7447715208925
 33
0
 14
326.5
 24
-615.7447715208925
 34
0
100
AcDbRotatedDimension
  0
DIMENSION
  5
117
100
AcDbEntity
  8
653x460x2.0
  6
ByLayer
 62
  256
370
   -1
100
AcDbDimension
  2
*D7
 10
326.5
 20
-601.7447715208925
 30
0
 11
323.375
 21
-608.7447715208925
 31
0
 70
   32
 71
    5
  3
Standard
 53
0
210
0
220
0
230
1
100
AcDbAlignedDimension
 13
326.5
 23
-615.7447715208925
 33
0
 14
326.5
 24
-601.7447715208925
 34
0
 50
90
100
AcDbRotatedDimension
  0
LINE
  5
118
100
AcDbEntity
  8
455x320.5x1.5
  6
ByLayer
 62
  256
370
   -1
100
AcDbLine
 10
-331.5
 20
-1100.744771520893
 11
133.5
 21
-1100.744771520893
  0
LINE
  5
119
100
AcDbEntity
  8
455x320.5x1.5
  6
ByLayer
 62
  256
370
   -1
100
AcDbLine
 10
-109
 20
-1193.869771520893
 11
-89
 21
-1193.869771520893
  0
LINE
  5
11A
100
AcDbEntity
  8
455x320.5x1.5
  6
ByLayer
 62
  256
370
   -1
100
AcDbLine
 10
-109
 20
-1273.994771520893
 11
-89
 21
-1273.994771520893
  0
DIMENSION
  5
11B
100
AcDbEntity
  8
455x320.5x1.5
  6
ByLayer
 62
  256
370
   -1
100
AcDbDimension
  2
*D8
 10
128.5
 20
-1100.744771520893
 30
0
 11
-99
 21
-1097.619771520893
 31
0
 70
   32
 71
    5
  3
Standard
 53
0
210
0
220
0
230
1
100
AcDbAlignedDimension
 13
-326.5
 23
-1100.744771520893
 33
0
 14
128.5
 24
-1100.744771520893
 34
0
100
AcDbRotatedDimension
  0
LINE
  5
11C
100
AcDbEntity
  8
455x320.5x1.5
  6
ByLayer
 62
  256
370
   -1
100
AcDbLine
 10
-108.9999999999999
 20
-1339.496847923304
 11
-88.99999999999994
 21
-1339.496847923304
  0
DIMENSION
  5
11D
100
AcDbEntity
  8
455x320.5x1.5
  6
ByLayer
 62
  256
370
   -1
100
AcDbDimension
  2
*D9
 10
128.5
 20
-1113.744771520893
 30
0
 11
12.54882920824482
 21
-1224.402595993549
 31
0
 70
   33
 71
    5
  3
Standard
 53
0
210
0
220
0
230
1
100
AcDbAlignedDimension
 13
-98.99999999999994
 23
-1339.496847923304
 33
0
 14
128.5
 24
-1113.744771520893
 34
0
  0
DIMENSION
  5
11E
100
AcDbEntity
  8
455x320.5x1.5
  6
ByLayer
 62
  256
370
   -1
100
AcDbDimension
  2
*D10
 10
128.5
 20
-1100.744771520893
 30
0
 11
125.375
 21
-1107.244771520893
 31
0
 70
   32
 71
    5
  3
Standard
 53
0
210
0
220
0
230
1
100
AcDbAlignedDimension
 13
128.5
 23
-1113.744771520893
 33
0
 14
128.5
 24
-1100.744771520893
 34
0
 50
90
100
AcDbRotatedDimension
  0
DIMENSION
  5
11F
100
AcDbEntity
  8
455x320.5x1.5
  6
ByLayer
 62
  256
370
   -1
100
AcDbDimension
  2
*D11
 10
-99
 20
-1113.744771520893
 30
0
 11
-120
 21
-1110.619771520893
 31
0
 70
   32
 71
    5
  3
Standard
 53
0
210
0
220
0
230
1
100
AcDbAlignedDimension
 13
-141
 23
-1113.744771520893
 33
0
 14
-99
 24
-1113.744771520893
 34
0
100
AcDbRotatedDimension
  0
DIMENSION
  5
120
100
AcDbEntity
  8
455x320.5x1.5
  6
ByLayer
 62
  256
370
   -1
100
AcDbDimension
  2
*D12
 10
-99
 20
-1193.869771520893
 30
0
 11
-102.125
 21
-1153.807271520893
 31
0
 70
   32
 71
    5
  3
Standard
 53
0
210
0
220
0
230
1
100
AcDbAlignedDimension
 13
-99
 23
-1113.744771520893
 33
0
 14
-99
 24
-1193.869771520893
 34
0
 50
90
100
AcDbRotatedDimension
  0
DIMENSION
  5
121
100
AcDbEntity
  8
455x320.5x1.5
  6
ByLayer
 62
  256
370
   -1
100
AcDbDimension
  2
*D13
 10
-99
 20
-1273.994771520893
 30
0
 11
-102.125
 21
-1233.932271520893
 31
0
 70
   32
 71
    5
  3
Standard
 53
0
210
0
220
0
230
1
100
AcDbAlignedDimension
 13
-99
 23
-1193.869771520893
 33
0
 14
-99
 24
-1273.994771520893
 34
0
 50
90
100
AcDbRotatedDimension
  0
DIMENSION
  5
122
100
AcDbEntity
  8
455x320.5x1.5
  6
ByLayer
 62
  256
370
   -1
100
AcDbDimension
  2
*D14
 10
128.5
 20
-1434.244771520893
 30
0
 11
125.375
 21
-1273.994771520893
 31
0
 70
   32
 71
    5
  3
Standard
 53
0
210
0
220
0
230
1
100
AcDbAlignedDimension
 13
128.5
 23
-1113.744771520893
 33
0
 14
128.5
 24
-1434.244771520893
 34
0
 50
90
100
AcDbRotatedDimension
  0
LINE
  5
123
100
AcDbEntity
  8
376x265x1.3
  6
ByLayer
 62
  256
370
   -1
100
AcDbLine
 10
-326.5
 20
-1736.244771520893
 11
49.5
 21
-1736.244771520893
  0
LINE
  5
124
100
AcDbEntity
  8
376x265x1.3
  6
ByLayer
 62
  256
370
   -1
100
AcDbLine
 10
-326.5
 20
-1471.244771520893
 11
49.5
 21
-1471.244771520893
  0
LINE
  5
125
100
AcDbEntity
  8
376x265x1.3
  6
ByLayer
 62
  256
370
   -1
100
AcDbLine
 10
-148.5
 20
-1537.494771520893
 11
-128.5
 21
-1537.494771520893
  0
LINE
  5
126
100
AcDbEntity
  8
376x265x1.3
  6
ByLayer
 62
  256
370
   -1
100
AcDbLine
 10
-148.5
 20
-1603.744771520893
 11
-128.5
 21
-1603.744771520893
  0
LINE
  5
127
100
AcDbEntity
  8
376x265x1.3
  6
ByLayer
 62
  256
370
   -1
100
AcDbLine
 10
-148.5000000000001
 20
-1658.00932918642
 11
-128.5000000000001
 21
-1658.00932918642
  0
DIMENSION
  5
128
100
AcDbEntity
  8
376x265x1.3
  6
ByLayer
 62
  256
370
   -1
100
AcDbDimension
  2
*D15
 10
49.5
 20
-1459.244771520893
 30
0
 11
-138.5
 21
-1456.119771520893
 31
0
 70
   32
 71
    5
  3
Standard
 53
0
210
0
220
0
230
1
100
AcDbAlignedDimension
 13
-326.5
 23
-1471.244771520893
 33
0
 14
49.5
 24
-1471.244771520893
 34
0
100
AcDbRotatedDimension
  0
DIMENSION
  5
129
100
AcDbEntity
  8
376x265x1.3
  6
ByLayer
 62
  256
370
   -1
100
AcDbDimension
  2
*D16
 10
-138.5
 20
-1471.244771520893
 30
0
 11
-156.9
 21
-1468.119771520893
 31
0
 70
   32
 71
    5
  3
Standard
 53
0
210
0
220
0
230
1
100
AcDbAlignedDimension
 13
-175.3
 23
-1471.244771520893
 33
0
 14
-138.5
 24
-1471.244771520893
 34
0
100
AcDbRotatedDimension
  0
DIMENSION
  5
12A
100
AcDbEntity
  8
376x265x1.3
  6
ByLayer
 62
  256
370
   -1
100
AcDbDimension
  2
*D17
 10
-138.5
 20
-1537.494771520893
 30
0
 11
-141.625
 21
-1504.369771520893
 31
0
 70
   32
 71
    5
  3
Standard
 53
0
210
0
220
0
230
1
100
AcDbAlignedDimension
 13
-138.5
 23
-1471.244771520893
 33
0
 14
-138.5
 24
-1537.494771520893
 34
0
 50
90
100
AcDbRotatedDimension
  0
DIMENSION
  5
12B
100
AcDbEntity
  8
376x265x1.3
  6
ByLayer
 62
  256
370
   -1
100
AcDbDimension
  2
*D18
 10
-138.5
 20
-1537.494771520893
 30
0
 11
-141.625
 21
-1570.619771520893
 31
0
 70
   32
 71
    5
  3
Standard
 53
0
210
0
220
0
230
1
100
AcDbAlignedDimension
 13
-138.5
 23
-1603.744771520893
 33
0
 14
-138.5
 24
-1537.494771520893
 34
0
 50
90
100
AcDbRotatedDimension
  0
DIMENSION
  5
12C
100
AcDbEntity
  8
376x265x1.3
  6
ByLayer
 62
  256
370
   -1
100
AcDbDimension
  2
*D19
 10
49.49999999999994
 20
-1471.244771520893
 30
0
 11
-46.7024122366219
 21
-1562.410069221581
 31
0
 70
   33
 71
    5
  3
Standard
 53
0
210
0
220
0
230
1
100
AcDbAlignedDimension
 13
-138.5000000000001
 23
-1658.00932918642
 33
0
 14
49.5
 24
-1471.244771520893
 34
0
  0
DIMENSION
  5
12D
100
AcDbEntity
  8
376x265x1.3
  6
ByLayer
 62
  256
370
   -1
100
AcDbDimension
  2
*D20
 10
49.5
 20
-1459.244771520893
 30
0
 11
46.375
 21
-1465.244771520893
 31
0
 70
   32
 71
    5
  3
Standard
 53
0
210
0
220
0
230
1
100
AcDbAlignedDimension
 13
49.5
 23
-1471.244771520893
 33
0
 14
49.5
 24
-1459.244771520893
 34
0
 50
90
100
AcDbRotatedDimension
  0
DIMENSION
  5
12E
100
AcDbEntity
  8
376x265x1.3
  6
ByLayer
 62
  256
370
   -1
100
AcDbDimension
  2
*D21
 10
49.5
 20
-1736.244771520893
 30
0
 11
46.37500000000001
 21
-1603.744771520893
 31
0
 70
   32
 71
    5
  3
Standard
 53
0
210
0
220
0
230
1
100
AcDbAlignedDimension
 13
49.5
 23
-1471.244771520893
 33
0
 14
49.5
 24
-1736.244771520893
 34
0
 50
90
100
AcDbRotatedDimension
  0
LINE
  5
12F
100
AcDbEntity
  8
376x265x1.3
  6
ByLayer
 62
  256
370
   -1
100
AcDbLine
 10
120.0364929808397
 20
-1.33216209599511e-316
 11
120.0364929808397
 21
1.33216209599511e-316
  0
LINE
  5
130
100
AcDbEntity
  8
376x265x1.3
  6
ByLayer
 62
  256
370
   -1
100
AcDbLine
 10
106.2146844702023
 20
0
 11
106.2146844702023
 21
0
  0
LINE
  5
131
100
AcDbEntity
  8
376x265x1.3
  6
ByLayer
 62
  256
370
   -1
100
AcDbLine
 10
120.0364929808397
 20
0
 11
120.0364929808397
 21
0
  0
LINE
  5
132
100
AcDbEntity
  8
376x265x1.3
  6
ByLayer
 62
  256
370
   -1
100
AcDbLine
 10
115.7505887255211
 20
0
 11
115.7505887255211
 21
0
  0
LINE
  5
133
100
AcDbEntity
  8
376x265x1.3
  6
ByLayer
 62
  256
370
   -1
100
AcDbLine
 10
111.4646844702023
 20
0
 11
111.4646844702023
 21
0
  0
LINE
  5
134
100
AcDbEntity
  8
376x265x1.3
  6
ByLayer
 62
  256
370
   -1
100
AcDbLine
 10
-101.7
 20
-1483.244771520893
 11
-101.7
 21
-1449.244771520893
  0
LINE
  5
135
100
AcDbEntity
  8
376x265x1.3
  6
ByLayer
 62
  256
370
   -1
100
AcDbLine
 10
-138.5
 20
-1741.244771520893
 11
-138.5
 21
-1449.244771520893
  0
LINE
  5
136
100
AcDbEntity
  8
376x265x1.3
  6
ByLayer
 62
  256
370
   -1
100
AcDbLine
 10
-175.3
 20
-1483.244771520893
 11
-175.3
 21
-1449.244771520893
  0
LINE
  5
137
100
AcDbEntity
  8
376x265x1.3
  6
ByLayer
 62
  256
370
   -1
100
AcDbLine
 10
-326.5
 20
-1459.244771520893
 11
49.5
 21
-1459.244771520893
  0
LINE
  5
138
100
AcDbEntity
  8
376x265x1.3
  6
ByLayer
 62
  256
370
   -1
100
AcDbLine
 10
49.5
 20
-1736.244771520893
 11
54.5
 21
-1736.244771520893
  0
LINE
  5
139
100
AcDbEntity
  8
376x265x1.3
  6
ByLayer
 62
  256
370
   -1
100
AcDbLine
 10
-326.5
 20
-1736.244771520893
 11
-331.5
 21
-1736.244771520893
  0
LINE
  5
13A
100
AcDbEntity
  8
376x265x1.3
  6
ByLayer
 62
  256
370
   -1
100
AcDbLine
 10
-326.5
 20
-1459.244771520893
 11
-331.5
 21
-1459.244771520893
  0
LINE
  5
13B
100
AcDbEntity
  8
376x265x1.3
  6
ByLayer
 62
  256
370
   -1
100
AcDbLine
 10
-326.5
 20
-1741.244771520893
 11
-326.5
 21
-1454.244771520893
  0
LINE
  5
13C
100
AcDbEntity
  8
376x265x1.3
  6
ByLayer
 62
  256
370
   -1
100
AcDbLine
 10
49.5
 20
-1741.244771520893
 11
49.5
 21
-1454.244771520893
  0
LINE
  5
13D
100
AcDbEntity
  8
376x265x1.3
  6
ByLayer
 62
  256
370
   -1
100
AcDbLine
 10
49.5
 20
-1459.244771520893
 11
54.5
 21
-1459.244771520893
  0
LINE
  5
13E
100
AcDbEntity
  8
376x265x1.3
  6
ByLayer
 62
  256
370
   -1
100
AcDbLine
 10
-326.5
 20
-1471.244771520893
 11
-331.5
 21
-1471.244771520893
  0
LINE
  5
13F
100
AcDbEntity
  8
376x265x1.3
  6
ByLayer
 62
  256
370
   -1
100
AcDbLine
 10
49.5
 20
-1471.244771520893
 11
54.5
 21
-1471.244771520893
  0
LINE
  5
140
100
AcDbEntity
  8
376x265x1.3
  6
ByLayer
 62
  256
370
   -1
100
AcDbLine
 10
62.92745042765218
 20
-1477.364333950311
 11
62.92745042765218
 21
-1464.364333950311
  0
LINE
  5
141
100
AcDbEntity
  8
376x265x1.3
  6
ByLayer
 62
  256
370
   -1
100
AcDbLine
 10
62.92745042765218
 20
-1477.364333950311
 11
71.92745042765218
 21
-1477.364333950311
  0
LINE
  5
142
100
AcDbEntity
  8
376x265x1.3
  6
ByLayer
 62
  256
370
   -1
100
AcDbLine
 10
71.92745042765218
 20
-1477.364333950311
 11
71.92745042765218
 21
-1464.364333950311
  0
LINE
  5
143
100
AcDbEntity
  8
376x265x1.3
  6
ByLayer
 62
  256
370
   -1
100
AcDbLine
 10
62.92745042765218
 20
-1464.364333950311
 11
71.92745042765218
 21
-1464.364333950311
  0
LINE
  5
144
100
AcDbEntity
  8
376x265x1.3
  6
ByLayer
 62
  256
370
   -1
100
AcDbLine
 10
62.92745042765218
 20
-1477.364333950311
 11
62.92745042765218
 21
-1490.364333950311
  0
LINE
  5
145
100
AcDbEntity
  8
376x265x1.3
  6
ByLayer
 62
  256
370
   -1
100
AcDbLine
 10
62.92745042765218
 20
-1477.364333950311
 11
71.92745042765218
 21
-1477.364333950311
  0
LINE
  5
146
100
AcDbEntity
  8
376x265x1.3
  6
ByLayer
 62
  256
370
   -1
100
AcDbLine
 10
71.92745042765218
 20
-1477.364333950311
 11
71.92745042765218
 21
-1490.364333950311
  0
LINE
  5
147
100
AcDbEntity
  8
376x265x1.3
  6
ByLayer
 62
  256
370
   -1
100
AcDbLine
 10
62.92745042765218
 20
-1490.364333950311
 11
71.92745042765218
 21
-1490.364333950311
  0
LINE
  5
148
100
AcDbEntity
  8
376x265x1.3
  6
ByLayer
 62
  256
370
   -1
100
AcDbLine
 10
75.74925893828971
 20
-1477.364333950311
 11
75.74925893828971
 21
-1464.364333950311
  0
LINE
  5
149
100
AcDbEntity
  8
376x265x1.3
  6
ByLayer
 62
  256
370
   -1
100
AcDbLine
 10
75.74925893828971
 20
-1477.364333950311
 11
84.74925893828971
 21
-1477.364333950311
  0
LINE
  5
14A
100
AcDbEntity
  8
376x265x1.3
  6
ByLayer
 62
  256
370
   -1
100
AcDbLine
 10
84.74925893828971
 20
-1477.364333950311
 11
84.74925893828971
 21
-1464.364333950311
  0
LINE
  5
14B
100
AcDbEntity
  8
376x265x1.3
  6
ByLayer
 62
  256
370
   -1
100
AcDbLine
 10
75.74925893828971
 20
-1464.364333950311
 11
84.74925893828971
 21
-1464.364333950311
  0
LINE
  5
14C
100
AcDbEntity
  8
376x265x1.3
  6
ByLayer
 62
  256
370
   -1
100
AcDbLine
 10
75.74925893828971
 20
-1477.364333950311
 11
75.74925893828971
 21
-1490.364333950311
  0
LINE
  5
14D
100
AcDbEntity
  8
376x265x1.3
  6
ByLayer
 62
  256
370
   -1
100
AcDbLine
 10
75.74925893828971
 20
-1477.364333950311
 11
84.74925893828971
 21
-1477.364333950311
  0
LINE
  5
14E
100
AcDbEntity
  8
376x265x1.3
  6
ByLayer
 62
  256
370
   -1
100
AcDbLine
 10
84.74925893828971
 20
-1477.364333950311
 11
84.74925893828971
 21
-1490.364333950311
  0
LINE
  5
14F
100
AcDbEntity
  8
376x265x1.3
  6
ByLayer
 62
  256
370
   -1
100
AcDbLine
 10
75.74925893828971
 20
-1490.364333950311
 11
84.74925893828971
 21
-1490.364333950311
  0
LINE
  5
150
100
AcDbEntity
  8
376x265x1.3
  6
ByLayer
 62
  256
370
   -1
100
AcDbLine
 10
84.74925893828971
 20
-1506.364333950311
 11
84.74925893828971
 21
-1518.364333950311
  0
LINE
  5
151
100
AcDbEntity
  8
376x265x1.3
  6
ByLayer
 62
  256
370
   -1
100
AcDbLine
 10
84.74925893828971
 20
-1506.364333950311
 11
64.74925893828971
 21
-1506.364333950311
  0
LINE
  5
152
100
AcDbEntity
  8
376x265x1.3
  6
ByLayer
 62
  256
370
   -1
100
AcDbLine
 10
64.74925893828971
 20
-1506.364333950311
 11
64.74925893828971
 21
-1518.364333950311
  0
LINE
  5
153
100
AcDbEntity
  8
376x265x1.3
  6
ByLayer
 62
  256
370
   -1
100
AcDbLine
 10
84.74925893828971
 20
-1518.364333950311
 11
64.74925893828971
 21
-1518.364333950311
  0
LINE
  5
154
100
AcDbEntity
  8
376x265x1.3
  6
ByLayer
 62
  256
370
   -1
100
AcDbLine
 10
84.74925893828971
 20
-1494.364333950311
 11
64.74925893828971
 21
-1494.364333950311
  0
LINE
  5
155
100
AcDbEntity
  8
376x265x1.3
  6
ByLayer
 62
  256
370
   -1
100
AcDbLine
 10
64.74925893828971
 20
-1506.364333950311
 11
64.74925893828971
 21
-1494.364333950311
  0
LINE
  5
156
100
AcDbEntity
  8
376x265x1.3
  6
ByLayer
 62
  256
370
   -1
100
AcDbLine
 10
84.74925893828971
 20
-1506.364333950311
 11
84.74925893828971
 21
-1494.364333950311
  0
LINE
  5
157
100
AcDbEntity
  8
376x265x1.3
  6
ByLayer
 62
  256
370
   -1
100
AcDbLine
 10
84.74925893828971
 20
-1534.364333950311
 11
84.74925893828971
 21
-1546.364333950311
  0
LINE
  5
158
100
AcDbEntity
  8
376x265x1.3
  6
ByLayer
 62
  256
370
   -1
100
AcDbLine
 10
84.74925893828971
 20
-1534.364333950311
 11
64.74925893828971
 21
-1534.364333950311
  0
LINE
  5
159
100
AcDbEntity
  8
376x265x1.3
  6
ByLayer
 62
  256
370
   -1
100
AcDbLine
 10
64.74925893828971
 20
-1534.364333950311
 11
64.74925893828971
 21
-1546.364333950311
  0
LINE
  5
15A
100
AcDbEntity
  8
376x265x1.3
  6
ByLayer
 62
  256
370
   -1
100
AcDbLine
 10
84.74925893828971
 20
-1546.364333950311
 11
64.74925893828971
 21
-1546.364333950311
  0
LINE
  5
15B
100
AcDbEntity
  8
376x265x1.3
  6
ByLayer
 62
  256
370
   -1
100
AcDbLine
 10
84.74925893828971
 20
-1522.364333950311
 11
64.74925893828971
 21
-1522.364333950311
  0
LINE
  5
15C
100
AcDbEntity
  8
376x265x1.3
  6
ByLayer
 62
  256
370
   -1
100
AcDbLine
 10
64.74925893828971
 20
-1534.364333950311
 11
64.74925893828971
 21
-1522.364333950311
  0
LINE
  5
15D
100
AcDbEntity
  8
376x265x1.3
  6
ByLayer
 62
  256
370
   -1
100
AcDbLine
 10
84.74925893828971
 20
-1534.364333950311
 11
84.74925893828971
 21
-1522.364333950311
  0
LINE
  5
15E
100
AcDbEntity
  8
376x265x1.3
  6
ByLayer
 62
  256
370
   -1
100
AcDbLine
 10
112.3928759595648
 20
-1506.364333950311
 11
112.3928759595648
 21
-1518.364333950311
  0
LINE
  5
15F
100
AcDbEntity
  8
376x265x1.3
  6
ByLayer
 62
  256
370
   -1
100
AcDbLine
 10
112.3928759595648
 20
-1506.364333950311
 11
92.39287595956478
 21
-1506.364333950311
  0
LINE
  5
160
100
AcDbEntity
  8
376x265x1.3
  6
ByLayer
 62
  256
370
   -1
100
AcDbLine
 10
92.39287595956478
 20
-1506.364333950311
 11
92.39287595956478
 21
-1518.364333950311
  0
LINE
  5
161
100
AcDbEntity
  8
376x265x1.3
  6
ByLayer
 62
  256
370
   -1
100
AcDbLine
 10
112.3928759595648
 20
-1518.364333950311
 11
92.39287595956478
 21
-1518.364333950311
  0
LINE
  5
162
100
AcDbEntity
  8
376x265x1.3
  6
ByLayer
 62
  256
370
   -1
100
AcDbLine
 10
112.3928759595648
 20
-1494.364333950311
 11
92.39287595956478
 21
-1494.364333950311
  0
LINE
  5
163
100
AcDbEntity
  8
376x265x1.3
  6
ByLayer
 62
  256
370
   -1
100
AcDbLine
 10
92.39287595956478
 20
-1506.364333950311
 11
92.39287595956478
 21
-1494.364333950311
  0
LINE
  5
164
100
AcDbEntity
  8
376x265x1.3
  6
ByLayer
 62
  256
370
   -1
100
AcDbLine
 10
112.3928759595648
 20
-1506.364333950311
 11
112.3928759595648
 21
-1494.364333950311
  0
LINE
  5
165
100
AcDbEntity
  8
376x265x1.3
  6
ByLayer
 62
  256
370
   -1
100
AcDbLine
 10
112.3928759595648
 20
-1534.364333950311
 11
112.3928759595648
 21
-1546.364333950311
  0
LINE
  5
166
100
AcDbEntity
  8
376x265x1.3
  6
ByLayer
 62
  256
370
   -1
100
AcDbLine
 10
112.3928759595648
 20
-1534.364333950311
 11
92.39287595956478
 21
-1534.364333950311
  0
LINE
  5
167
100
AcDbEntity
  8
376x265x1.3
  6
ByLayer
 62
  256
370
   -1
100
AcDbLine
 10
92.39287595956478
 20
-1534.364333950311
 11
92.39287595956478
 21
-1546.364333950311
  0
LINE
  5
168
100
AcDbEntity
  8
376x265x1.3
  6
ByLayer
 62
  256
370
   -1
100
AcDbLine
 10
112.3928759595648
 20
-1546.364333950311
 11
92.39287595956478
 21
-1546.364333950311
  0
LINE
  5
169
100
AcDbEntity
  8
376x265x1.3
  6
ByLayer
 62
  256
370
   -1
100
AcDbLine
 10
112.3928759595648
 20
-1522.364333950311
 11
92.39287595956478
 21
-1522.364333950311
  0
LINE
  5
16A
100
AcDbEntity
  8
376x265x1.3
  6
ByLayer
 62
  256
370
   -1
100
AcDbLine
 10
92.39287595956478
 20
-1534.364333950311
 11
92.39287595956478
 21
-1522.364333950311
  0
LINE
  5
16B
100
AcDbEntity
  8
376x265x1.3
  6
ByLayer
 62
  256
370
   -1
100
AcDbLine
 10
112.3928759595648
 20
-1534.364333950311
 11
112.3928759595648
 21
-1522.364333950311
  0
LINE
  5
16C
100
AcDbEntity
  8
376x265x1.3
  6
ByLayer
 62
  256
370
   -1
100
AcDbLine
 10
82.74925893828971
 20
-1506.364333950311
 11
82.74925893828971
 21
-1494.364333950311
  0
LINE
  5
16D
100
AcDbEntity
  8
376x265x1.3
  6
ByLayer
 62
  256
370
   -1
100
AcDbLine
 10
94.39287595956478
 20
-1506.364333950311
 11
94.39287595956478
 21
-1494.364333950311
  0
LINE
  5
16E
100
AcDbEntity
  8
376x265x1.3
  6
ByLayer
 62
  256
370
   -1
100
AcDbLine
 10
82.74925893828971
 20
-1534.364333950311
 11
82.74925893828971
 21
-1522.364333950311
  0
LINE
  5
16F
100
AcDbEntity
  8
376x265x1.3
  6
ByLayer
 62
  256
370
   -1
100
AcDbLine
 10
94.39287595956478
 20
-1534.364333950311
 11
94.39287595956478
 21
-1522.364333950311
  0
LINE
  5
170
100
AcDbEntity
  8
376x265x1.3
  6
ByLayer
 62
  256
370
   -1
100
AcDbLine
 10
82.74925893828971
 20
-1534.364333950311
 11
82.74925893828971
 21
-1546.364333950311
  0
LINE
  5
171
100
AcDbEntity
  8
376x265x1.3
  6
ByLayer
 62
  256
370
   -1
100
AcDbLine
 10
94.39287595956478
 20
-1534.364333950311
 11
94.39287595956478
 21
-1546.364333950311
  0
LINE
  5
172
100
AcDbEntity
  8
376x265x1.3
  6
ByLayer
 62
  256
370
   -1
100
AcDbLine
 10
82.74925893828971
 20
-1506.364333950311
 11
82.74925893828971
 21
-1518.364333950311
  0
LINE
  5
173
100
AcDbEntity
  8
376x265x1.3
  6
ByLayer
 62
  256
370
   -1
100
AcDbLine
 10
94.39287595956478
 20
-1506.364333950311
 11
94.39287595956478
 21
-1518.364333950311
  0
LINE
  5
174
100
AcDbEntity
  8
376x265x1.3
  6
ByLayer
 62
  256
370
   -1
100
AcDbLine
 10
62.50604745577867
 20
-1618.582647393709
 11
72.67007100871989
 21
-1622.211613872107
  0
LINE
  5
175
100
AcDbEntity
  8
376x265x1.3
  6
ByLayer
 62
  256
370
   -1
100
AcDbLine
 10
76.34029244719277
 20
-1627.419173347073
 11
72.19439486432758
 21
-1639.031019565867
  0
LINE
  5
176
100
AcDbEntity
  8
376x265x1.3
  6
ByLayer
 62
  256
370
   -1
100
AcDbLine
 10
76.34029244719277
 20
-1627.419173347073
 11
72.67007100871989
 21
-1622.211613872107
  0
LINE
  5
177
100
AcDbEntity
  8
376x265x1.3
  6
ByLayer
 62
  256
370
   -1
100
AcDbLine
 10
76.74898713364279
 20
-1627.131130549441
 11
89.07876569515587
 21
-1627.131130549441
  0
LINE
  5
178
100
AcDbEntity
  8
376x265x1.3
  6
ByLayer
 62
  256
370
   -1
100
AcDbLine
 10
76.74898713364279
 20
-1627.131130549441
 11
73.07876569517016
 21
-1621.923571074476
  0
LINE
  5
179
100
AcDbEntity
  8
376x265x1.3
  6
ByLayer
 62
  256
370
   -1
100
AcDbLine
 10
73.07876569517056
 20
-1611.131130549441
 11
73.07876569517016
 21
-1621.923571074476
  0
LINE
  5
17A
100
AcDbEntity
  8
376x265x1.3
  6
ByLayer
 62
  256
370
   -1
100
AcDbLine
 10
74.81082681979457
 20
-1624.381137047528
 11
86.45862538362927
 21
-1616.171917315036
  0
LINE
  5
17B
100
AcDbEntity
  8
376x265x1.3
  6
ByLayer
 62
  256
370
   -1
100
AcDbLine
 10
76.25104080795036
 20
-1626.424610479779
 11
87.89883937178648
 21
-1618.215390747289
  0
LINE
  5
17C
100
AcDbEntity
  8
376x265x1.3
  6
ByLayer
 62
  256
370
   -1
100
AcDbLine
 10
87.89883937178648
 20
-1618.215390747289
 11
86.45862538362927
 21
-1616.171917315036
  0
LINE
  5
17D
100
AcDbEntity
  8
376x265x1.3
  6
ByLayer
 62
  256
370
   -1
100
AcDbLine
 10
75.84234612149989
 20
-1626.71265327741
 11
64.19454755766547
 21
-1634.921873009901
  0
ARC
  5
17E
100
AcDbEntity
  8
376x265x1.3
  6
ByLayer
 62
  256
370
   -1
100
AcDbCircle
 10
77.57440724612518
 20
-1623.962659775496
 40
16
100
AcDbArc
 50
219.6564913796475
 51
250.351385187307
  0
LINE
  5
17F
100
AcDbEntity
  8
376x265x1.3
  6
ByLayer
 62
  256
370
   -1
100
AcDbLine
 10
74.40213213334407
 20
-1624.669179845159
 11
62.75433356950917
 21
-1632.878399577649
  0
LINE
  5
180
100
AcDbEntity
  8
376x265x1.3
  6
ByLayer
 62
  256
370
   -1
100
AcDbLine
 10
64.19454755766547
 20
-1634.921873009901
 11
62.75433356950917
 21
-1632.878399577649
  0
ARC
  5
181
100
AcDbEntity
  8
376x265x1.3
  6
ByLayer
 62
  256
370
   -1
100
AcDbCircle
 10
77.57440724612518
 20
-1623.962659775496
 40
16
100
AcDbArc
 50
160.3513851873146
 51
210.6948938076701
  0
ARC
  5
182
100
AcDbEntity
  8
376x265x1.3
  6
ByLayer
 62
  256
370
   -1
100
AcDbCircle
 10
73.07876569517036
 20
-1627.131130549441
 40
16
100
AcDbArc
 50
39.65649137963164
 51
90
  0
ARC
  5
183
100
AcDbEntity
  8
376x265x1.3
  6
ByLayer
 62
  256
370
   -1
100
AcDbCircle
 10
73.07876569517036
 20
-1627.131130549441
 40
16
100
AcDbArc
 50
359.9999999999984
 51
30.69489380766635
  0
LINE
  5
184
100
AcDbEntity
  8
376x265x1.3
  6
ByLayer
 62
  256
370
   -1
100
AcDbLine
 10
121.6514839345631
 20
-1618.582647393709
 11
111.4874603816219
 21
-1622.211613872107
  0
LINE
  5
185
100
AcDbEntity
  8
376x265x1.3
  6
ByLayer
 62
  256
370
   -1
100
AcDbLine
 10
107.8172389431491
 20
-1627.419173347073
 11
111.9631365260143
 21
-1639.031019565867
  0
LINE
  5
186
100
AcDbEntity
  8
376x265x1.3
  6
ByLayer
 62
  256
370
   -1
100
AcDbLine
 10
107.8172389431491
 20
-1627.419173347073
 11
111.4874603816219
 21
-1622.211613872107
  0
LINE
  5
187
100
AcDbEntity
  8
376x265x1.3
  6
ByLayer
 62
  256
370
   -1
100
AcDbLine
 10
107.408544256699
 20
-1627.131130549441
 11
95.07876569518588
 21
-1627.131130549441
  0
LINE
  5
188
100
AcDbEntity
  8
376x265x1.3
  6
ByLayer
 62
  256
370
   -1
100
AcDbLine
 10
107.408544256699
 20
-1627.131130549441
 11
111.0787656951716
 21
-1621.923571074476
  0
LINE
  5
189
100
AcDbEntity
  8
376x265x1.3
  6
ByLayer
 62
  256
370
   -1
100
AcDbLine
 10
111.0787656951713
 20
-1611.131130549441
 11
111.0787656951716
 21
-1621.923571074476
  0
LINE
  5
18A
100
AcDbEntity
  8
376x265x1.3
  6
ByLayer
 62
  256
370
   -1
100
AcDbLine
 10
109.3467045705473
 20
-1624.381137047528
 11
97.69890600671248
 21
-1616.171917315036
  0
LINE
  5
18B
100
AcDbEntity
  8
376x265x1.3
  6
ByLayer
 62
  256
370
   -1
100
AcDbLine
 10
107.9064905823915
 20
-1626.424610479779
 11
96.25869201855527
 21
-1618.215390747289
  0
LINE
  5
18C
100
AcDbEntity
  8
376x265x1.3
  6
ByLayer
 62
  256
370
   -1
100
AcDbLine
 10
96.25869201855527
 20
-1618.215390747289
 11
97.69890600671248
 21
-1616.171917315036
  0
LINE
  5
18D
100
AcDbEntity
  8
376x265x1.3
  6
ByLayer
 62
  256
370
   -1
100
AcDbLine
 10
108.3151852688419
 20
-1626.71265327741
 11
119.9629838326763
 21
-1634.921873009901
  0
ARC
  5
18E
100
AcDbEntity
  8
376x265x1.3
  6
ByLayer
 62
  256
370
   -1
100
AcDbCircle
 10
106.5831241442167
 20
-1623.962659775496
 40
16
100
AcDbArc
 50
289.6486148126929
 51
320.3435086203525
  0
LINE
  5
18F
100
AcDbEntity
  8
376x265x1.3
  6
ByLayer
 62
  256
370
   -1
100
AcDbLine
 10
109.7553992569978
 20
-1624.669179845159
 11
121.4031978208326
 21
-1632.878399577649
  0
LINE
  5
190
100
AcDbEntity
  8
376x265x1.3
  6
ByLayer
 62
  256
370
   -1
100
AcDbLine
 10
119.9629838326763
 20
-1634.921873009901
 11
121.4031978208326
 21
-1632.878399577649
  0
ARC
  5
191
100
AcDbEntity
  8
376x265x1.3
  6
ByLayer
 62
  256
370
   -1
100
AcDbCircle
 10
106.5831241442167
 20
-1623.962659775496
 40
16
100
AcDbArc
 50
329.30510619233
 51
19.64861481268542
  0
ARC
  5
192
100
AcDbEntity
  8
376x265x1.3
  6
ByLayer
 62
  256
370
   -1
100
AcDbCircle
 10
111.0787656951715
 20
-1627.131130549441
 40
16
100
AcDbArc
 50
90
 51
140.3435086203684
  0
ARC
  5
193
100
AcDbEntity
  8
376x265x1.3
  6
ByLayer
 62
  256
370
   -1
100
AcDbCircle
 10
111.0787656951715
 20
-1627.131130549441
 40
16
100
AcDbArc
 50
149.3051061923337
 51
180.0000000000016
  0
LINE
  5
194
100
AcDbEntity
  8
376x265x1.3
  6
ByLayer
 62
  256
370
   -1
100
AcDbLine
 10
62.50604745577867
 20
-1650.69628342722
 11
72.67007100871989
 21
-1654.325249905617
  0
LINE
  5
195
100
AcDbEntity
  8
376x265x1.3
  6
ByLayer
 62
  256
370
   -1
100
AcDbLine
 10
76.34029244719277
 20
-1659.532809380583
 11
72.19439486432758
 21
-1671.144655599377
  0
LINE
  5
196
100
AcDbEntity
  8
376x265x1.3
  6
ByLayer
 62
  256
370
   -1
100
AcDbLine
 10
76.34029244719277
 20
-1659.532809380583
 11
72.67007100871989
 21
-1654.325249905617
  0
LINE
  5
197
100
AcDbEntity
  8
376x265x1.3
  6
ByLayer
 62
  256
370
   -1
100
AcDbLine
 10
76.74898713364279
 20
-1659.244766582951
 11
89.07876569515587
 21
-1659.244766582951
  0
LINE
  5
198
100
AcDbEntity
  8
376x265x1.3
  6
ByLayer
 62
  256
370
   -1
100
AcDbLine
 10
76.74898713364279
 20
-1659.244766582951
 11
73.07876569517016
 21
-1654.037207107986
  0
LINE
  5
199
100
AcDbEntity
  8
376x265x1.3
  6
ByLayer
 62
  256
370
   -1
100
AcDbLine
 10
73.07876569517056
 20
-1643.244766582951
 11
73.07876569517016
 21
-1654.037207107986
  0
LINE
  5
19A
100
AcDbEntity
  8
376x265x1.3
  6
ByLayer
 62
  256
370
   -1
100
AcDbLine
 10
74.81082681979457
 20
-1656.494773081038
 11
86.45862538362927
 21
-1648.285553348547
  0
LINE
  5
19B
100
AcDbEntity
  8
376x265x1.3
  6
ByLayer
 62
  256
370
   -1
100
AcDbLine
 10
76.25104080795036
 20
-1658.538246513289
 11
87.89883937178648
 21
-1650.329026780799
  0
LINE
  5
19C
100
AcDbEntity
  8
376x265x1.3
  6
ByLayer
 62
  256
370
   -1
100
AcDbLine
 10
87.89883937178648
 20
-1650.329026780799
 11
86.45862538362927
 21
-1648.285553348547
  0
LINE
  5
19D
100
AcDbEntity
  8
376x265x1.3
  6
ByLayer
 62
  256
370
   -1
100
AcDbLine
 10
75.84234612149989
 20
-1658.82628931092
 11
64.19454755766547
 21
-1667.035509043412
  0
ARC
  5
19E
100
AcDbEntity
  8
376x265x1.3
  6
ByLayer
 62
  256
370
   -1
100
AcDbCircle
 10
77.57440724612518
 20
-1656.076295809006
 40
16
100
AcDbArc
 50
219.6564913796475
 51
250.351385187307
  0
LINE
  5
19F
100
AcDbEntity
  8
376x265x1.3
  6
ByLayer
 62
  256
370
   -1
100
AcDbLine
 10
74.40213213334407
 20
-1656.782815878669
 11
62.75433356950917
 21
-1664.99203561116
  0
LINE
  5
1A0
100
AcDbEntity
  8
376x265x1.3
  6
ByLayer
 62
  256
370
   -1
100
AcDbLine
 10
64.19454755766547
 20
-1667.035509043412
 11
62.75433356950917
 21
-1664.99203561116
  0
ARC
  5
1A1
100
AcDbEntity
  8
376x265x1.3
  6
ByLayer
 62
  256
370
   -1
100
AcDbCircle
 10
77.57440724612518
 20
-1656.076295809006
 40
16
100
AcDbArc
 50
160.3513851873146
 51
210.6948938076701
  0
ARC
  5
1A2
100
AcDbEntity
  8
376x265x1.3
  6
ByLayer
 62
  256
370
   -1
100
AcDbCircle
 10
73.07876569517036
 20
-1659.244766582951
 40
16
100
AcDbArc
 50
39.65649137963164
 51
90
  0
ARC
  5
1A3
100
AcDbEntity
  8
376x265x1.3
  6
ByLayer
 62
  256
370
   -1
100
AcDbCircle
 10
73.07876569517036
 20
-1659.244766582951
 40
16
100
AcDbArc
 50
359.9999999999984
 51
30.69489380766635
  0
LINE
  5
1A4
100
AcDbEntity
  8
376x265x1.3
  6
ByLayer
 62
  256
370
   -1
100
AcDbLine
 10
121.6514839345631
 20
-1650.69628342722
 11
111.4874603816219
 21
-1654.325249905617
  0
LINE
  5
1A5
100
AcDbEntity
  8
376x265x1.3
  6
ByLayer
 62
  256
370
   -1
100
AcDbLine
 10
107.8172389431491
 20
-1659.532809380583
 11
111.9631365260143
 21
-1671.144655599377
  0
LINE
  5
1A6
100
AcDbEntity
  8
376x265x1.3
  6
ByLayer
 62
  256
370
   -1
100
AcDbLine
 10
107.8172389431491
 20
-1659.532809380583
 11
111.4874603816219
 21
-1654.325249905617
  0
LINE
  5
1A7
100
AcDbEntity
  8
376x265x1.3
  6
ByLayer
 62
  256
370
   -1
100
AcDbLine
 10
107.408544256699
 20
-1659.244766582951
 11
95.07876569518588
 21
-1659.244766582951
  0
LINE
  5
1A8
100
AcDbEntity
  8
376x265x1.3
  6
ByLayer
 62
  256
370
   -1
100
AcDbLine
 10
107.408544256699
 20
-1659.244766582951
 11
111.0787656951716
 21
-1654.037207107986
  0
LINE
  5
1A9
100
AcDbEntity
  8
376x265x1.3
  6
ByLayer
 62
  256
370
   -1
100
AcDbLine
 10
111.0787656951713
 20
-1643.244766582951
 11
111.0787656951716
 21
-1654.037207107986
  0
LINE
  5
1AA
100
AcDbEntity
  8
376x265x1.3
  6
ByLayer
 62
  256
370
   -1
100
AcDbLine
 10
109.3467045705473
 20
-1656.494773081038
 11
97.69890600671248
 21
-1648.285553348547
  0
LINE
  5
1AB
100
AcDbEntity
  8
376x265x1.3
  6
ByLayer
 62
  256
370
   -1
100
AcDbLine
 10
107.9064905823915
 20
-1658.538246513289
 11
96.25869201855527
 21
-1650.329026780799
  0
LINE
  5
1AC
100
AcDbEntity
  8
376x265x1.3
  6
ByLayer
 62
  256
370
   -1
100
AcDbLine
 10
96.25869201855527
 20
-1650.329026780799
 11
97.69890600671248
 21
-1648.285553348547
  0
LINE
  5
1AD
100
AcDbEntity
  8
376x265x1.3
  6
ByLayer
 62
  256
370
   -1
100
AcDbLine
 10
108.3151852688419
 20
-1658.82628931092
 11
119.9629838326763
 21
-1667.035509043412
  0
ARC
  5
1AE
100
AcDbEntity
  8
376x265x1.3
  6
ByLayer
 62
  256
370
   -1
100
AcDbCircle
 10
106.5831241442167
 20
-1656.076295809006
 40
16
100
AcDbArc
 50
289.6486148126929
 51
320.3435086203525
  0
LINE
  5
1AF
100
AcDbEntity
  8
376x265x1.3
  6
ByLayer
 62
  256
370
   -1
100
AcDbLine
 10
109.7553992569978
 20
-1656.782815878669
 11
121.4031978208326
 21
-1664.99203561116
  0
LINE
  5
1B0
100
AcDbEntity
  8
376x265x1.3
  6
ByLayer
 62
  256
370
   -1
100
AcDbLine
 10
119.9629838326763
 20
-1667.035509043412
 11
121.4031978208326
 21
-1664.99203561116
  0
ARC
  5
1B1
100
AcDbEntity
  8
376x265x1.3
  6
ByLayer
 62
  256
370
   -1
100
AcDbCircle
 10
106.5831241442167
 20
-1656.076295809006
 40
16
100
AcDbArc
 50
329.30510619233
 51
19.64861481268542
  0
ARC
  5
1B2
100
AcDbEntity
  8
376x265x1.3
  6
ByLayer
 62
  256
370
   -1
100
AcDbCircle
 10
111.0787656951715
 20
-1659.244766582951
 40
16
100
AcDbArc
 50
90
 51
140.3435086203684
  0
ARC
  5
1B3
100
AcDbEntity
  8
376x265x1.3
  6
ByLayer
 62
  256
370
   -1
100
AcDbCircle
 10
111.0787656951715
 20
-1659.244766582951
 40
16
100
AcDbArc
 50
149.3051061923337
 51
180.0000000000016
  0
LINE
  5
1B4
100
AcDbEntity
  8
376x265x1.3
  6
ByLayer
 62
  256
370
   -1
100
AcDbLine
 10
73.5400729814891
 20
-1708.131658778801
 11
76.0400729814891
 21
-1708.131658778801
  0
LINE
  5
1B5
100
AcDbEntity
  8
376x265x1.3
  6
ByLayer
 62
  256
370
   -1
100
AcDbLine
 10
76.0400729814891
 20
-1708.131658778801
 11
76.0400729814891
 21
-1737.131658778801
  0
LINE
  5
1B6
100
AcDbEntity
  8
376x265x1.3
  6
ByLayer
 62
  256
370
   -1
100
AcDbLine
 10
76.0400729814891
 20
-1737.131658778801
 11
73.5400729814891
 21
-1737.131658778801
  0
LINE
  5
1B7
100
AcDbEntity
  8
376x265x1.3
  6
ByLayer
 62
  256
370
   -1
100
AcDbLine
 10
73.5400729814891
 20
-1708.131658778801
 11
73.5400729814891
 21
-1737.131658778801
  0
LINE
  5
1B8
100
AcDbEntity
  8
376x265x1.3
  6
ByLayer
 62
  256
370
   -1
100
AcDbLine
 10
73.5400729814891
 20
-1722.631658778801
 11
69.7900729814891
 21
-1722.631658778801
  0
LINE
  5
1B9
100
AcDbEntity
  8
376x265x1.3
  6
ByLayer
 62
  256
370
   -1
100
AcDbLine
 10
79.7900729814891
 20
-1722.631658778801
 11
76.0400729814891
 21
-1722.631658778801
  0
LINE
  5
1BA
100
AcDbEntity
  8
376x265x1.3
  6
ByLayer
 62
  256
370
   -1
100
AcDbLine
 10
80.2900729814891
 20
-1709.631658778801
 11
80.2900729814891
 21
-1735.631658778801
  0
LINE
  5
1BB
100
AcDbEntity
  8
376x265x1.3
  6
ByLayer
 62
  256
370
   -1
100
AcDbLine
 10
69.2900729814891
 20
-1709.631658778801
 11
69.2900729814891
 21
-1735.631658778801
  0
LINE
  5
1BC
100
AcDbEntity
  8
376x265x1.3
  6
ByLayer
 62
  256
370
   -1
100
AcDbLine
 10
89.1334883356123
 20
-1708.131658778801
 11
91.6334883356123
 21
-1708.131658778801
  0
LINE
  5
1BD
100
AcDbEntity
  8
376x265x1.3
  6
ByLayer
 62
  256
370
   -1
100
AcDbLine
 10
91.6334883356123
 20
-1708.131658778801
 11
91.6334883356123
 21
-1737.131658778801
  0
LINE
  5
1BE
100
AcDbEntity
  8
376x265x1.3
  6
ByLayer
 62
  256
370
   -1
100
AcDbLine
 10
91.6334883356123
 20
-1737.131658778801
 11
89.1334883356123
 21
-1737.131658778801
  0
LINE
  5
1BF
100
AcDbEntity
  8
376x265x1.3
  6
ByLayer
 62
  256
370
   -1
100
AcDbLine
 10
89.1334883356123
 20
-1708.131658778801
 11
89.1334883356123
 21
-1737.131658778801
  0
LINE
  5
1C0
100
AcDbEntity
  8
376x265x1.3
  6
ByLayer
 62
  256
370
   -1
100
AcDbLine
 10
89.1334883356123
 20
-1722.631658778801
 11
85.3834883356123
 21
-1722.631658778801
  0
LINE
  5
1C1
100
AcDbEntity
  8
376x265x1.3
  6
ByLayer
 62
  256
370
   -1
100
AcDbLine
 10
95.3834883356123
 20
-1722.631658778801
 11
91.6334883356123
 21
-1722.631658778801
  0
LINE
  5
1C2
100
AcDbEntity
  8
376x265x1.3
  6
ByLayer
 62
  256
370
   -1
100
AcDbLine
 10
95.8834883356123
 20
-1709.631658778801
 11
95.8834883356123
 21
-1735.631658778801
  0
LINE
  5
1C3
100
AcDbEntity
  8
376x265x1.3
  6
ByLayer
 62
  256
370
   -1
100
AcDbLine
 10
91.6334883356123
 20
-1709.631658778801
 11
95.8834883356123
 21
-1709.631658778801
  0
LINE
  5
1C4
100
AcDbEntity
  8
376x265x1.3
  6
ByLayer
 62
  256
370
   -1
100
AcDbLine
 10
95.8834883356123
 20
-1735.631658778801
 11
91.6334883356123
 21
-1735.631658778801
  0
LINE
  5
1C5
100
AcDbEntity
  8
376x265x1.3
  6
ByLayer
 62
  256
370
   -1
100
AcDbLine
 10
84.8834883356123
 20
-1709.631658778801
 11
84.8834883356123
 21
-1735.631658778801
  0
LINE
  5
1C6
100
AcDbEntity
  8
376x265x1.3
  6
ByLayer
 62
  256
370
   -1
100
AcDbLine
 10
104.7269036897354
 20
-1708.131658778801
 11
107.2269036897354
 21
-1708.131658778801
  0
LINE
  5
1C7
100
AcDbEntity
  8
376x265x1.3
  6
ByLayer
 62
  256
370
   -1
100
AcDbLine
 10
107.2269036897354
 20
-1708.131658778801
 11
107.2269036897354
 21
-1737.131658778801
  0
LINE
  5
1C8
100
AcDbEntity
  8
376x265x1.3
  6
ByLayer
 62
  256
370
   -1
100
AcDbLine
 10
107.2269036897354
 20
-1737.131658778801
 11
104.7269036897354
 21
-1737.131658778801
  0
LINE
  5
1C9
100
AcDbEntity
  8
376x265x1.3
  6
ByLayer
 62
  256
370
   -1
100
AcDbLine
 10
104.7269036897354
 20
-1708.131658778801
 11
104.7269036897354
 21
-1737.131658778801
  0
LINE
  5
1CA
100
AcDbEntity
  8
376x265x1.3
  6
ByLayer
 62
  256
370
   -1
100
AcDbLine
 10
104.7269036897354
 20
-1722.631658778801
 11
100.9769036897354
 21
-1722.631658778801
  0
LINE
  5
1CB
100
AcDbEntity
  8
376x265x1.3
  6
ByLayer
 62
  256
370
   -1
100
AcDbLine
 10
110.9769036897354
 20
-1722.631658778801
 11
107.2269036897354
 21
-1722.631658778801
  0
LINE
  5
1CC
100
AcDbEntity
  8
376x265x1.3
  6
ByLayer
 62
  256
370
   -1
100
AcDbLine
 10
111.4769036897354
 20
-1709.631658778801
 11
111.4769036897354
 21
-1735.631658778801
  0
LINE
  5
1CD
100
AcDbEntity
  8
376x265x1.3
  6
ByLayer
 62
  256
370
   -1
100
AcDbLine
 10
100.4769036897354
 20
-1709.631658778801
 11
100.4769036897354
 21
-1735.631658778801
  0
LINE
  5
1CE
100
AcDbEntity
  8
376x265x1.3
  6
ByLayer
 62
  256
370
   -1
100
AcDbLine
 10
80.7900729814891
 20
-1709.631658778801
 11
80.7900729814891
 21
-1735.631658778801
  0
LINE
  5
1CF
100
AcDbEntity
  8
376x265x1.3
  6
ByLayer
 62
  256
370
   -1
100
AcDbLine
 10
95.3834883356123
 20
-1709.631658778801
 11
95.3834883356123
 21
-1735.631658778801
  0
LINE
  5
1D0
100
AcDbEntity
  8
376x265x1.3
  6
ByLayer
 62
  256
370
   -1
100
AcDbLine
 10
111.9769036897354
 20
-1709.631658778801
 11
111.9769036897354
 21
-1735.631658778801
  0
LINE
  5
1D1
100
AcDbEntity
  8
376x265x1.3
  6
ByLayer
 62
  256
370
   -1
100
AcDbLine
 10
99.97690368973539
 20
-1709.631658778801
 11
99.97690368973539
 21
-1735.631658778801
  0
LINE
  5
1D2
100
AcDbEntity
  8
376x265x1.3
  6
ByLayer
 62
  256
370
   -1
100
AcDbLine
 10
68.7900729814891
 20
-1709.631658778801
 11
73.5400729814891
 21
-1709.631658778801
  0
LINE
  5
1D3
100
AcDbEntity
  8
376x265x1.3
  6
ByLayer
 62
  256
370
   -1
100
AcDbLine
 10
68.7900729814891
 20
-1709.631658778801
 11
68.7900729814891
 21
-1735.631658778801
  0
LINE
  5
1D4
100
AcDbEntity
  8
376x265x1.3
  6
ByLayer
 62
  256
370
   -1
100
AcDbLine
 10
76.0400729814891
 20
-1709.631658778801
 11
80.7900729814891
 21
-1709.631658778801
  0
LINE
  5
1D5
100
AcDbEntity
  8
376x265x1.3
  6
ByLayer
 62
  256
370
   -1
100
AcDbLine
 10
73.5400729814891
 20
-1735.631658778801
 11
68.7900729814891
 21
-1735.631658778801
  0
LINE
  5
1D6
100
AcDbEntity
  8
376x265x1.3
  6
ByLayer
 62
  256
370
   -1
100
AcDbLine
 10
80.7900729814891
 20
-1735.631658778801
 11
76.0400729814891
 21
-1735.631658778801
  0
LINE
  5
1D7
100
AcDbEntity
  8
376x265x1.3
  6
ByLayer
 62
  256
370
   -1
100
AcDbLine
 10
89.1334883356123
 20
-1735.631658778801
 11
84.38348833561228
 21
-1735.631658778801
  0
LINE
  5
1D8
100
AcDbEntity
  8
376x265x1.3
  6
ByLayer
 62
  256
370
   -1
100
AcDbLine
 10
84.38348833561231
 20
-1709.631658778801
 11
89.1334883356123
 21
-1709.631658778801
  0
LINE
  5
1D9
100
AcDbEntity
  8
376x265x1.3
  6
ByLayer
 62
  256
370
   -1
100
AcDbLine
 10
84.38348833561231
 20
-1709.631658778801
 11
84.38348833561228
 21
-1735.631658778801
  0
LINE
  5
1DA
100
AcDbEntity
  8
376x265x1.3
  6
ByLayer
 62
  256
370
   -1
100
AcDbLine
 10
111.9769036897354
 20
-1735.631658778801
 11
107.2269036897354
 21
-1735.631658778801
  0
LINE
  5
1DB
100
AcDbEntity
  8
376x265x1.3
  6
ByLayer
 62
  256
370
   -1
100
AcDbLine
 10
104.7269036897354
 20
-1735.631658778801
 11
99.97690368973539
 21
-1735.631658778801
  0
LINE
  5
1DC
100
AcDbEntity
  8
376x265x1.3
  6
ByLayer
 62
  256
370
   -1
100
AcDbLine
 10
99.97690368973539
 20
-1709.631658778801
 11
104.7269036897354
 21
-1709.631658778801
  0
LINE
  5
1DD
100
AcDbEntity
  8
376x265x1.3
  6
ByLayer
 62
  256
370
   -1
100
AcDbLine
 10
107.2269036897354
 20
-1709.631658778801
 11
111.9769036897354
 21
-1709.631658778801
  0
LINE
  5
1DE
100
AcDbEntity
  8
376x265x1.3
  6
ByLayer
 62
  256
370
   -1
100
AcDbLine
 10
97.36431284956497
 20
-1473.477246545201
 11
90.36431284956497
 21
-1473.477246545201
  0
LINE
  5
1DF
100
AcDbEntity
  8
376x265x1.3
  6
ByLayer
 62
  256
370
   -1
100
AcDbLine
 10
97.36431284956497
 20
-1473.477246545201
 11
90.36431284956497
 21
-1473.477246545201
  0
LINE
  5
1E0
100
AcDbEntity
  8
376x265x1.3
  6
ByLayer
 62
  256
370
   -1
100
AcDbLine
 10
97.36431284956497
 20
-1473.477246545201
 11
97.36431284956497
 21
-1464.477246545201
  0
LINE
  5
1E1
100
AcDbEntity
  8
376x265x1.3
  6
ByLayer
 62
  256
370
   -1
100
AcDbLine
 10
90.36431284956497
 20
-1473.477246545201
 11
90.36431284956497
 21
-1464.477246545201
  0
LINE
  5
1E2
100
AcDbEntity
  8
376x265x1.3
  6
ByLayer
 62
  256
370
   -1
100
AcDbLine
 10
97.36431284956497
 20
-1464.477246545201
 11
90.36431284956497
 21
-1464.477246545201
  0
LINE
  5
1E3
100
AcDbEntity
  8
376x265x1.3
  6
ByLayer
 62
  256
370
   -1
100
AcDbLine
 10
90.36431284956497
 20
-1473.477246545201
 11
90.36431284956497
 21
-1482.477246545201
  0
LINE
  5
1E4
100
AcDbEntity
  8
376x265x1.3
  6
ByLayer
 62
  256
370
   -1
100
AcDbLine
 10
97.36431284956497
 20
-1473.477246545201
 11
97.36431284956497
 21
-1482.477246545201
  0
LINE
  5
1E5
100
AcDbEntity
  8
376x265x1.3
  6
ByLayer
 62
  256
370
   -1
100
AcDbLine
 10
97.36431284956497
 20
-1482.477246545201
 11
90.36431284956497
 21
-1482.477246545201
  0
LINE
  5
1E6
100
AcDbEntity
  8
376x265x1.3
  6
ByLayer
 62
  256
370
   -1
100
AcDbLine
 10
110.4705572023024
 20
-1473.477246545201
 11
103.4705572023023
 21
-1473.477246545201
  0
LINE
  5
1E7
100
AcDbEntity
  8
376x265x1.3
  6
ByLayer
 62
  256
370
   -1
100
AcDbLine
 10
110.4705572023024
 20
-1473.477246545201
 11
103.4705572023023
 21
-1473.477246545201
  0
LINE
  5
1E8
100
AcDbEntity
  8
376x265x1.3
  6
ByLayer
 62
  256
370
   -1
100
AcDbLine
 10
103.4705572023023
 20
-1473.477246545201
 11
103.4705572023023
 21
-1464.477246545201
  0
LINE
  5
1E9
100
AcDbEntity
  8
376x265x1.3
  6
ByLayer
 62
  256
370
   -1
100
AcDbLine
 10
110.4705572023024
 20
-1473.477246545201
 11
110.4705572023024
 21
-1464.477246545201
  0
LINE
  5
1EA
100
AcDbEntity
  8
376x265x1.3
  6
ByLayer
 62
  256
370
   -1
100
AcDbLine
 10
110.4705572023024
 20
-1464.477246545201
 11
103.4705572023023
 21
-1464.477246545201
  0
LINE
  5
1EB
100
AcDbEntity
  8
376x265x1.3
  6
ByLayer
 62
  256
370
   -1
100
AcDbLine
 10
103.4705572023023
 20
-1473.477246545201
 11
103.4705572023023
 21
-1482.477246545201
  0
LINE
  5
1EC
100
AcDbEntity
  8
376x265x1.3
  6
ByLayer
 62
  256
370
   -1
100
AcDbLine
 10
110.4705572023024
 20
-1473.477246545201
 11
110.4705572023024
 21
-1482.477246545201
  0
LINE
  5
1ED
100
AcDbEntity
  8
376x265x1.3
  6
ByLayer
 62
  256
370
   -1
100
AcDbLine
 10
110.4705572023024
 20
-1482.477246545201
 11
103.4705572023023
 21
-1482.477246545201
  0
LINE
  5
1EE
100
AcDbEntity
  8
455x320.5x1.5
  6
ByLayer
 62
  256
370
   -1
100
AcDbLine
 10
-331.5
 20
-1113.744771520893
 11
133.5
 21
-1113.744771520893
  0
LINE
  5
1EF
100
AcDbEntity
  8
455x320.5x1.5
  6
ByLayer
 62
  256
370
   -1
100
AcDbLine
 10
-57
 20
-1123.744771520893
 11
-57
 21
-1090.744771520893
  0
LINE
  5
1F0
100
AcDbEntity
  8
455x320.5x1.5
  6
ByLayer
 62
  256
370
   -1
100
AcDbLine
 10
-99
 20
-1439.244771520893
 11
-99
 21
-1090.744771520893
  0
LINE
  5
1F1
100
AcDbEntity
  8
455x320.5x1.5
  6
ByLayer
 62
  256
370
   -1
100
AcDbLine
 10
-141
 20
-1123.744771520893
 11
-141
 21
-1090.744771520893
  0
LINE
  5
1F2
100
AcDbEntity
  8
455x320.5x1.5
  6
ByLayer
 62
  256
370
   -1
100
AcDbLine
 10
128.5
 20
-1090.744771520893
 11
128.5
 21
-1439.244771520893
  0
LINE
  5
1F3
100
AcDbEntity
  8
455x320.5x1.5
  6
ByLayer
 62
  256
370
   -1
100
AcDbLine
 10
-326.5
 20
-1439.244771520893
 11
-326.5
 21
-1090.744771520893
  0
LINE
  5
1F4
100
AcDbEntity
  8
455x320.5x1.5
  6
ByLayer
 62
  256
370
   -1
100
AcDbLine
 10
-331.5
 20
-1434.244771520893
 11
133.5
 21
-1434.244771520893
  0
LINE
  5
1F5
100
AcDbEntity
  8
653x460x2.0
  6
ByLayer
 62
  256
370
   -1
100
AcDbLine
 10
-326.5
 20
-591.7447715208925
 11
-326.5
 21
-1080.744771520893
  0
LINE
  5
1F6
100
AcDbEntity
  8
653x460x2.0
  6
ByLayer
 62
  256
370
   -1
100
AcDbLine
 10
-55
 20
-591.7447715208925
 11
-55
 21
-625.7447715208925
  0
LINE
  5
1F7
100
AcDbEntity
  8
653x460x2.0
  6
ByLayer
 62
  256
370
   -1
100
AcDbLine
 10
55
 20
-591.7447715208925
 11
55
 21
-625.7447715208925
  0
LINE
  5
1F8
100
AcDbEntity
  8
653x460x2.0
  6
ByLayer
 62
  256
370
   -1
100
AcDbLine
 10
326.5
 20
-591.7447715208925
 11
326.5
 21
-1080.744771520893
  0
LINE
  5
1F9
100
AcDbEntity
  8
653x460x2.0
  6
ByLayer
 62
  256
370
   -1
100
AcDbLine
 10
-331.5
 20
-1075.744771520893
 11
331.5
 21
-1075.744771520893
  0
LINE
  5
1FA
100
AcDbEntity
  8
653x460x2.0
  6
ByLayer
 62
  256
370
   -1
100
AcDbLine
 10
-331.5
 20
-615.7447715208925
 11
331.5
 21
-615.7447715208925
  0
LINE
  5
1FB
100
AcDbEntity
  8
653x460x2.0
  6
ByLayer
 62
  256
370
   -1
100
AcDbLine
 10
0
 20
-591.7447715208925
 11
0
 21
-1080.744771520893
  0
ENDSEC
  0
SECTION
  2
OBJECTS
  0
DICTIONARY
  5
C
330
0
100
AcDbDictionary
281
    1
  3
ACAD_GROUP
350
D
  0
DICTIONARY
  5
D
330
C
100
AcDbDictionary
281
    1
  0
ENDSEC
  0
EOF
